<?xml version="1.0" encoding="UTF-8"?>
<svg id="Layer_1" data-name="Layer 1" xmlns="http://www.w3.org/2000/svg" viewBox="0 0 105.81 120">
  <defs>
    <style>
      .cls-1 {
        fill: #ebebeb;
      }

      .cls-2 {
        fill: #fff;
      }

      .cls-3 {
        fill: #f16529;
      }

      .cls-4 {
        fill: #e44d26;
      }
    </style>
  </defs>
  <g>
    <polygon class="cls-4" points="52.84 120 9.63 108 0 0 105.81 0 96.17 107.99 52.84 120"/>
    <polygon class="cls-3" points="87.92 101.11 96.15 8.83 52.9 8.83 52.9 110.82 87.92 101.11"/>
  </g>
  <polygon class="cls-2" points="52.94 35.32 84.89 35.32 86.08 22.08 52.94 22.08 52.9 22.08 19.73 22.08 23.3 62.13 52.9 62.13 52.94 62.13 69.21 62.13 67.67 79.31 52.9 83.3 52.9 83.3 52.89 83.31 38.13 79.32 37.19 68.76 23.89 68.76 25.75 89.55 52.88 97.09 52.94 97.07 52.94 97.07 80.05 89.55 83.69 48.89 52.94 48.89 52.9 48.89 35.42 48.89 34.21 35.32 52.9 35.32 52.94 35.32"/>
  <g>
    <polygon class="cls-1" points="52.9 83.3 52.9 83.3 52.9 83.3 52.89 83.31 38.13 79.32 37.19 68.76 23.89 68.76 25.75 89.55 52.88 97.09 52.9 97.08 52.9 83.3"/>
    <polygon class="cls-1" points="52.9 62.13 52.9 48.89 52.9 48.89 35.42 48.89 34.21 35.32 52.9 35.32 52.9 35.32 52.9 22.08 52.9 22.08 19.73 22.08 23.3 62.13 52.9 62.13 52.9 62.13"/>
  </g>
</svg>