<?xml version="1.0" encoding="UTF-8"?>
<svg id="Layer_1" data-name="Layer 1" xmlns="http://www.w3.org/2000/svg" viewBox="0 0 103.14 117.09">
  <defs>
    <style>
      .cls-1 {
        fill: #fff;
      }

      .cls-2 {
        fill: #ffd83a;
      }

      .cls-3 {
        fill: #dab92d;
      }
    </style>
  </defs>
  <g>
    <polygon class="cls-3" points="51.25 117.09 9.15 105.3 0 0 103.14 .23 93.51 105.47 51.25 117.09"/>
    <polygon class="cls-2" points="85.48 98.75 93.71 8.82 51.55 8.72 51.33 108.14 85.48 98.75"/>
  </g>
  <polygon class="cls-1" points="53.85 21.64 53.76 60.69 66.67 60.71 66.82 60.72 65.29 77.46 53.72 80.55 53.69 93.96 77.33 87.47 80.97 47.83 66.7 47.8 66.73 34.58 82.13 34.61 82.17 34.61 83.35 21.7 53.85 21.64"/>
  <polygon class="cls-1" points="36.12 21.6 37.94 78.13 33.97 77.18 33.15 67.1 22.64 67.07 24.4 87.35 48.02 93.97 48.18 21.63 36.12 21.6"/>
</svg>