<?xml version="1.0" 
encoding="UTF-8"?>

<svg id="Layer_1" data-name="Layer 1" xmlns="http://www.w3.org/2000/svg" xmlns:xlink="http://www.w3.org/1999/xlink" 
width="150"
height="100"
viewBox="0 0 100 150">
  <defs>
    <style>
      .cls-1, .cls-2 {
        fill: none;
      }

      .cls-3 {
        font-size: 11.61px;
      }

      .cls-3, .cls-4 {
        fill: #ea0fc1;
        font-family: Mont-HeavyDEMO, Mont;
      }

      .cls-2 {
        stroke: #ea0fc1;
        stroke-miterlimit: 10;
        stroke-width: 6px;
      }

      .cls-4 {
        font-size: 26.65px;
      }

      .cls-5 {
        fill: #f99186;
      }

      .cls-6 {
        fill: #fdd9d5;
      }

      .cls-7 {
        fill: #fee6e3;
      }

      .cls-8 {
        fill: #fff;
      }

      .cls-9 {
        fill: #fcc0b9;
      }

      .cls-10 {
        fill: #bd908b;
      }

      .cls-11 {
        fill: #242223;
      }

      .cls-12 {
        fill: #1f1917;
      }

      .cls-13 {
        fill: #0f0f0f;
      }

      .cls-14 {
        fill: #3d312e;
      }

      .cls-15 {
        fill: #77787b;
      }

      .cls-16 {
        fill: url(#Orchid_2);
      }
    </style>
    <linearGradient id="Orchid_2" data-name="Orchid 2" x1="56.15" y1="91.8" x2="94.12" y2="91.8" gradientUnits="userSpaceOnUse">
      <stop offset="0" stop-color="#ff7bac"/>
      <stop offset="1" stop-color="#ff7bac"/>
    </linearGradient>
  </defs>
  <g>
    <g>
      <g>
        <path class="cls-9" d="M90.29,29.69s-1.26-2.94,1.18-6.8c2.45-3.87,4.97-20.94,15.15-21.83,10.18-.89,10.81,8.5,10.26,12.68-.55,4.18-1.5,16.33-3.31,17.44-1.81,1.1,3.08,10.18-1.1,12.94-4.18,2.76-5.88,6.95-8.7,6.23s-13.47-20.66-13.47-20.66Z"/>
        <path class="cls-5" d="M106.58,38.28c-.25-1.83-1.18-3.52-1.46-5.35-.38-2.45,.43-4.91,1.26-7.24,.83-2.33,1.72-4.75,1.51-7.22-.21-2.47-1.88-5.01-4.34-5.33-2.04-.27-4.04,1.07-5.12,2.83-1.08,1.75-1.43,3.85-1.7,5.9-.88,6.87-.89,14.34,2.93,20.11,.93,1.4,2.9,4.05,4.7,2.71,1.77-1.32,2.5-4.34,2.22-6.4Z"/>
        <path class="cls-8" d="M110.41,45.72l-1.74,1.71c-1.59,1.66-2.82,3.03-4.33,3-.58,4.3-2.53,7.61-2.15,11.39,.71,7.18-4.13,10.84-4.13,10.84,0,0-.08,.05-.19,.16,.77,2.11,1.16,4.34,1.08,6.54-.13,3.75-2.69,6.38-6.39,7.47,0,0,0,0,0,0-.83,.28-1.68,.42-2.57,.41h0c-.17,0-.34-.01-.52-.02,0,0-.01,0-.02,0-.17-.01-.34-.03-.52-.06,0,0-.01,0-.02,0-.17-.03-.35-.06-.52-.1,0,0-.01,0-.02,0-.18-.04-.35-.08-.53-.14,0,0,0,0-.01,0-.18-.05-.37-.11-.55-.18h0s0,0,0,0c-.55-.19-1.11-.44-1.68-.76,0,0,0,0,0,0-.07-.04-.14-.08-.21-.11,0,0-.01,0-.02-.01-.06-.04-.13-.07-.19-.11,0,0-.02-.01-.03-.02-.06-.04-.12-.07-.19-.11-.01,0-.02-.01-.03-.02-.06-.04-.12-.08-.18-.11-.01,0-.02-.01-.03-.02-.06-.04-.13-.08-.19-.12,0,0-.02-.01-.03-.02-.07-.05-.14-.09-.21-.14,0,0,0,0-.01,0-.15-.1-.3-.21-.45-.32-4.49-3.25-8.59-3.52-8.59-3.52,0,0-4.1,.27-8.59,3.52-.15,.11-.3,.22-.45,.32,0,0,0,0-.01,0-.07,.05-.14,.09-.21,.14,0,0-.02,.01-.03,.02-.06,.04-.13,.08-.19,.12-.01,0-.02,.01-.03,.02-.06,.04-.12,.08-.18,.11-.01,0-.02,.01-.03,.02-.06,.04-.12,.08-.19,.11,0,0-.02,.01-.03,.02-.06,.04-.13,.07-.19,.11,0,0-.01,0-.02,.01-.07,.04-.14,.08-.21,.11,0,0,0,0,0,0-.58,.31-1.14,.56-1.68,.76h0s0,0,0,0c-.19,.07-.37,.13-.55,.18,0,0,0,0-.01,0-.18,.05-.36,.1-.53,.14,0,0-.01,0-.02,0-.18,.04-.35,.07-.52,.1,0,0-.01,0-.02,0-.17,.03-.35,.05-.52,.06,0,0,0,0-.02,0-.17,.01-.35,.02-.52,.02h0c-.89,.01-1.74-.13-2.57-.41,0,0,0,0,0,0-3.69-1.1-6.26-3.72-6.39-7.47-.08-2.2,.31-4.43,1.08-6.54-.11-.11-.19-.16-.19-.16,0,0-4.85-3.66-4.13-10.84,.71-7.18-6.99-12.66,2.35-26.48,9.34-13.82,24.63-11.65,24.63-11.65,0,0,7.27-1.03,14.84,2.86,.16-1.04,.56-2.29,1.42-3.65,1.61-2.54,3.25-10.81,7.09-16.41-3.38,5.42-3.54,18.54,1.2,21.5,4.73,2.96-1.91,6.5,2.34,8.35,4.25,1.85,3.8,8.05,4.81,9.88,.95,1.73,3.26-.27,3.51-.49Z"/>
        <g>
          <path class="cls-1" d="M75.26,24.04h-.05s-.05,0-.05,0c-.04,0-3.84-.52-8.71,.65-4.48,1.07-10.82,3.82-15.58,10.85-6.31,9.34-4.73,14.8-3.33,19.61,.65,2.25,1.27,4.38,1.04,6.71-.68,6.83,3.85,10.41,3.99,10.51,.03,.02,.11,.08,.23,.19l.17,.16-.08,.22c-.78,2.13-1.14,4.29-1.06,6.41,.12,3.42,2.35,6.02,6.13,7.14h.01c.81,.27,1.64,.4,2.46,.39h0c.16,0,.32-.01,.49-.02h.01c.17-.01,.33-.03,.5-.06h.02c.17-.03,.33-.06,.5-.1h.02c.17-.04,.34-.09,.51-.13h.01c.18-.05,.36-.11,.53-.17h.03c.53-.2,1.07-.44,1.61-.74,.07-.04,.14-.08,.21-.11h.02c.06-.05,.13-.08,.19-.12l.03-.02c.06-.04,.12-.07,.18-.11l.03-.02c.06-.04,.12-.07,.18-.11l.03-.02c.06-.04,.12-.08,.19-.12l.03-.02c.07-.04,.14-.09,.2-.14h0c.15-.11,.3-.21,.45-.32,4.52-3.27,8.6-3.58,8.78-3.59h.02s.02,0,.02,0c.17,.01,4.25,.31,8.78,3.59,.14,.1,.29,.21,.44,.31h.01c.07,.05,.13,.1,.2,.14l.03,.02c.06,.04,.12,.08,.19,.12l.03,.02c.06,.04,.12,.08,.18,.11l.03,.02c.06,.04,.12,.07,.18,.11l.03,.02c.06,.04,.12,.07,.19,.11h.02c.07,.05,.13,.09,.2,.12h0c.55,.3,1.1,.55,1.63,.74h0c.18,.07,.36,.12,.53,.17h.02c.17,.05,.34,.1,.51,.13h.02c.17,.04,.33,.07,.5,.1h.02c.17,.03,.33,.05,.49,.06h.01c.16,.01,.33,.02,.49,.03,.82,.01,1.65-.12,2.45-.39h.02c3.78-1.13,6.01-3.73,6.13-7.15,.07-2.12-.28-4.28-1.06-6.41l-.08-.22,.17-.16c.11-.11,.2-.17,.23-.19,.07-.05,1.21-.95,2.26-2.65,.99-1.6,2.09-4.27,1.73-7.86-.23-2.32,.39-4.45,1.04-6.71,.43-1.49,.88-3.04,1.11-4.75l-14.27-22.81,.2-.7c-2.14-1.11-4.2-1.79-5.98-2.21-4.87-1.16-8.64-.65-8.68-.64Z"/>
          <path class="cls-11" d="M103.99,50.4h0c-.23,1.71-.68,3.26-1.11,4.75-.65,2.25-1.27,4.38-1.04,6.71,.36,3.59-.74,6.26-1.73,7.86-1.05,1.7-2.19,2.6-2.26,2.65-.03,.02-.11,.08-.23,.19l-.17,.16,.08,.22c.78,2.13,1.14,4.29,1.06,6.41-.12,3.42-2.35,6.02-6.13,7.14h-.02c-.81,.27-1.63,.4-2.45,.39-.16,0-.33-.01-.49-.02h-.01c-.16-.01-.33-.03-.49-.06h-.02c-.16-.03-.33-.06-.5-.1h-.02c-.17-.04-.34-.09-.51-.13h-.02c-.17-.06-.35-.11-.53-.17h0c-.53-.19-1.08-.44-1.63-.74h0c-.07-.04-.13-.08-.2-.11h-.02c-.06-.05-.13-.08-.19-.12l-.03-.02c-.06-.04-.12-.07-.18-.11l-.03-.02c-.06-.04-.12-.07-.18-.11l-.03-.02c-.06-.04-.12-.08-.19-.12l-.03-.02c-.07-.04-.13-.09-.2-.13h-.01c-.15-.11-.3-.22-.44-.32-4.52-3.27-8.6-3.58-8.78-3.59h-.02s-.02,0-.02,0c-.17,.01-4.25,.31-8.78,3.59-.14,.1-.29,.21-.45,.31h0c-.07,.05-.14,.1-.2,.14l-.03,.02c-.06,.04-.12,.08-.19,.12l-.03,.02c-.06,.04-.12,.08-.18,.11l-.03,.02c-.06,.04-.12,.07-.18,.11l-.03,.02c-.06,.04-.13,.07-.19,.11h-.02c-.07,.05-.13,.09-.21,.12-.54,.29-1.08,.54-1.61,.73h-.03c-.18,.07-.35,.13-.53,.18h-.01c-.17,.05-.35,.1-.51,.13h-.02c-.17,.04-.34,.07-.5,.1h-.02c-.16,.03-.33,.05-.5,.06h-.01c-.16,.01-.33,.02-.49,.02h0c-.82,0-1.64-.12-2.46-.39h-.01c-3.78-1.13-6.01-3.73-6.13-7.15-.07-2.12,.28-4.28,1.06-6.41l.08-.22-.17-.16c-.11-.11-.2-.17-.23-.19-.14-.11-4.67-3.69-3.99-10.51,.23-2.32-.39-4.45-1.04-6.71-1.4-4.81-2.98-10.27,3.33-19.61,4.75-7.03,11.09-9.78,15.58-10.85,4.87-1.16,8.67-.65,8.71-.65h.05s.05,0,.05,0c.04,0,3.81-.52,8.68,.64,1.77,.42,3.83,1.11,5.98,2.21l.2-.71c-1.88-.96-3.89-1.69-6.01-2.2-4.75-1.13-8.41-.72-8.89-.66-.49-.06-4.14-.47-8.89,.66-2.94,.7-5.67,1.84-8.14,3.4-3.08,1.95-5.73,4.56-7.89,7.75-2.89,4.28-4.43,8.16-4.68,11.86-.23,3.25,.53,5.84,1.26,8.35,.63,2.19,1.23,4.25,1.02,6.44-.38,3.81,.8,6.63,1.85,8.33,1.1,1.78,2.28,2.71,2.41,2.81-.75,2.14-1.09,4.31-1.02,6.44,.07,1.88,.74,3.59,1.95,4.96,1.14,1.29,2.77,2.27,4.7,2.85h0c.84,.28,1.71,.42,2.56,.42,.04,0,.07,0,.11,0h0c.18,0,.36-.01,.54-.03h.01c.18-.02,.36-.04,.54-.06h.02c.18-.03,.36-.06,.55-.1h.02c.18-.04,.37-.09,.56-.15h.01c.18-.06,.37-.11,.55-.18h.02c.57-.21,1.15-.47,1.73-.79h0c.07-.04,.14-.08,.21-.12h.02c.07-.05,.13-.09,.2-.13l.03-.02c.06-.04,.13-.08,.19-.12l.03-.02c.06-.04,.13-.08,.19-.12l.03-.02c.06-.04,.13-.08,.19-.13l.03-.02c.07-.05,.14-.09,.21-.14h0c.16-.11,.31-.22,.46-.33,4.17-3.02,8.05-3.42,8.38-3.45,.34,.03,4.2,.42,8.38,3.45,.15,.11,.3,.22,.46,.32h.02c.07,.06,.14,.11,.21,.15l.03,.02c.06,.04,.13,.08,.19,.12l.04,.02c.06,.04,.13,.08,.19,.12l.03,.02c.06,.04,.13,.08,.19,.11l.03,.02c.07,.04,.13,.08,.2,.11h.02c.07,.05,.14,.09,.21,.13h0c.58,.32,1.16,.58,1.73,.78h0c.19,.07,.38,.13,.58,.19h0c.19,.06,.37,.1,.55,.14h.02c.18,.04,.37,.08,.55,.11h.02c.18,.03,.36,.05,.54,.07h.02c.18,.02,.36,.02,.54,.03,.9,.01,1.8-.13,2.68-.42h0c1.93-.57,3.55-1.56,4.7-2.85,1.21-1.36,1.88-3.08,1.95-4.96,.07-2.13-.27-4.3-1.02-6.44,.13-.1,1.31-1.04,2.41-2.81,1.05-1.7,2.23-4.53,1.85-8.33-.22-2.19,.38-4.25,1.02-6.44,.45-1.56,.91-3.15,1.15-4.92-.32,.08-.72-.03-.72-.03Z"/>
          <path class="cls-8" d="M104.82,46.99c-.26-3.7-1.79-7.57-4.68-11.86-2.16-3.19-4.81-5.8-7.89-7.75-.69-.44-1.4-.84-2.13-1.21l-.2,.71c3.28,1.7,6.75,4.39,9.63,8.65,4.36,6.45,4.95,11.05,4.44,14.86h0s.4,.12,.72,.03c.14-1.07,.2-2.21,.11-3.44Z"/>
        </g>
        <path class="cls-9" d="M60.13,29.69s1.26-2.94-1.18-6.8c-2.45-3.87-4.97-20.94-15.15-21.83-10.18-.89-10.81,8.5-10.26,12.68,.55,4.18,1.5,16.33,3.31,17.44,1.81,1.1-3.08,10.18,1.1,12.94,4.18,2.76,5.88,6.95,8.7,6.23s13.47-20.66,13.47-20.66Z"/>
        <path class="cls-5" d="M43.89,38.28c.25-1.83,1.18-3.52,1.46-5.35,.38-2.45-.43-4.91-1.26-7.24-.83-2.33-1.72-4.75-1.51-7.22,.21-2.47,1.88-5.01,4.34-5.33,2.04-.27,4.04,1.07,5.12,2.83s1.43,3.85,1.7,5.9c.88,6.87,.89,14.34-2.93,20.11-.93,1.4-2.9,4.05-4.7,2.71-1.77-1.32-2.5-4.34-2.22-6.4Z"/>
        <path class="cls-11" d="M69.6,51.4c0,3.23-.69,6.47-2.45,9.48-4.28,.87-8.23,2.63-11.06,5.92-1.52,1.77-2.73,3.83-3.53,6.02-.11-.11-.19-.16-.19-.16,0,0-4.85-3.66-4.13-10.84,.37-3.78-1.58-7.09-2.15-11.39-.02,0-.03,0-.05,0-1.48,0-2.7-1.36-4.28-3,.06,.05,1.65,1.4,2.64-.4,1.01-1.83,.56-8.04,4.81-9.88,.12-.05,.22-.1,.32-.16,.8-.43,1.06-.99,1.03-1.61-.07-2.15-3.45-5.18,.11-7.4,4.73-2.96,4.58-16.08,1.2-21.5,3.83,5.61,5.48,13.87,7.09,16.41,1.29,2.04,1.55,3.82,1.5,5.05,2.23,3.03,9.15,13.24,9.15,23.46Z"/>
        <path class="cls-15" d="M50.89,57.67s-.55,8.07,10.28,3.2l-10.28-3.2Z"/>
        <g>
          <g>
            <path class="cls-8" d="M88.11,60.32s1.55-7.14,7.18-7.66,5.33,10.25-2.18,8.58l-5-.92Z"/>
            <path class="cls-10" d="M91.96,61.03h0s-3.85-.71-3.85-.71c0,0,.46-2.1,1.77-4.11,0,0-.14,3.13,2.08,4.82Z"/>
            <path class="cls-13" d="M99.18,56.87c-.09,2.6-2.04,5.26-6.06,4.37l-4.36-.8s4.09,1.26,5.26,1.69c1.17,.42,6.26,.28,5.17-5.25Z"/>
            <g>
              <path class="cls-14" d="M95.29,52.66c-2.14,.2-3.7,1.35-4.8,2.71-.13,1.4,0,3.89,2.3,4.97,3.16,1.49,6.14-.5,6.26-4.77-.38-1.72-1.66-3.1-3.76-2.91Z"/>
              <path class="cls-13" d="M95.97,52.65c-.22-.02-.44-.01-.68,0-1.78,.16-3.16,.99-4.2,2.04-.14,.52-.19,1.1-.13,1.69,.23,2.23,1.93,3.91,3.8,3.75s3.19-2.1,2.96-4.33c-.14-1.35-.82-2.5-1.75-3.16Z"/>
              <ellipse class="cls-8" cx="91.45" cy="57.05" rx=".6" ry=".55"/>
              <ellipse class="cls-8" cx="97.53" cy="56.4" rx=".68" ry=".62"/>
            </g>
            <path class="cls-13" d="M95.29,52.66c-4.37,.4-6.28,4.79-6.92,6.74,.58-2.79,3.18-7.35,6.01-7.89,2.83-.54,5.25,2,5.25,2,.08,1.23-.56,4.22-.56,4.22,.49-2.51-.83-5.34-3.79-5.07Z"/>
          </g>
          <path d="M94.63,61.78c-.48,0-1.01-.06-1.59-.18l-4.99-.92c-.09-.02-.18-.07-.23-.15s-.07-.18-.05-.27c.02-.08,.41-1.86,1.52-3.74,1.49-2.52,3.56-3.98,5.98-4.2,1.57-.14,2.9,.54,3.65,1.88,.96,1.71,.79,4.13-.4,5.74-.56,.75-1.74,1.85-3.88,1.85Zm-6.08-1.74l4.62,.85s0,0,.01,0c2.05,.46,3.74-.04,4.75-1.4,1.04-1.4,1.19-3.48,.35-4.97-.62-1.1-1.67-1.63-2.97-1.52-4.61,.42-6.38,5.6-6.77,7.02Z"/>
        </g>
        <g>
          <path class="cls-8" d="M85.87,85.7s-1.35,.34-2.12,1.06c-.77,.72-1.86,1.61-3.77,1.94-1.92,.33-4.42-.31-4.77-.31s-2.85,.64-4.77,.31c-1.92-.33-3.01-1.22-3.77-1.94-.77-.72-2.12-1.06-2.12-1.06,.94-.32,1.92-.81,2.95-1.49,4.03-2.66,7.71-2.88,7.71-2.88,0,0,3.68,.22,7.71,2.88,1.04,.68,2.02,1.17,2.95,1.49Z"/>
          <path class="cls-7" d="M85.87,85.7s-1.35,.34-2.12,1.06c-.77,.72-1.86,1.61-3.77,1.94-1.92,.33-4.42-.31-4.77-.31s-2.85,.64-4.77,.31c-1.92-.33-3.01-1.22-3.77-1.94-.77-.72-2.12-1.06-2.12-1.06,.94-.32,1.92-.81,2.95-1.49,.91-.6,1.8-1.08,2.64-1.46,2.67-1.21,4.76-1.4,5.04-1.43,0,0,.01,0,.01,0,.01,0,.02,0,.02,0,0,0,0,0,.02,0,.21,.01,2.33,.2,5.05,1.43,.84,.38,1.73,.85,2.64,1.46,1.04,.68,2.02,1.17,2.95,1.49Z"/>
          <g>
            <polygon class="cls-10" points="84.52 85.43 84.52 85.43 84.52 85.43 84.52 85.43"/>
            <path class="cls-10" d="M84.26,85.28c-1.47-.79-3.02-1.45-4.64-1.94-.36-.11-.73-.21-1.11-.22-.43-.01-.73,.15-1.11,.3-.41,.17-.85,.3-1.3,.37-.83,.13-1.81,.12-2.58-.2-.55-.22-1.08-.47-1.7-.48-.93,0-1.8,.49-2.64,.8-.86,.32-1.71,.67-2.51,1.09-.18,.09-.35,.19-.53,.29,.71-.43,1.37-.92,2.07-1.36,.69-.43,1.39-.82,2.12-1.18,2.59-1.22,4.6-1.42,4.84-1.44,0,0,0,0,0,0,.01,0,.02,0,.02,0,0,0,0,0,.02,0,0,0,0,0,.02,0,0,0,.01,0,.02,0,0,0,.01,0,.02,0,.38,.04,2.32,.27,4.8,1.43,1.49,.7,2.79,1.69,4.19,2.52Z"/>
          </g>
          <path class="cls-11" d="M71.67,89.29c-.45,0-.89-.03-1.31-.1-1.98-.34-3.15-1.24-4.03-2.07-.55-.52-1.56-.85-1.9-.94l-1.64-.41,1.6-.55c.91-.31,1.86-.79,2.84-1.44,4.1-2.71,7.8-2.96,7.95-2.96h.03s.03,0,.03,0c.16,0,3.86,.26,7.95,2.96,.97,.64,1.93,1.13,2.84,1.44l1.6,.55-1.64,.41s-1.24,.32-1.9,.94c-.88,.83-2.06,1.73-4.03,2.07-1.56,.27-3.47-.07-4.39-.23-.19-.03-.4-.07-.46-.08-.07,0-.28,.04-.46,.08-.67,.12-1.87,.33-3.07,.33Zm3.54-1.4c.12,0,.28,.03,.64,.09,.86,.15,2.66,.47,4.05,.23,1.71-.3,2.7-1.05,3.52-1.81,.32-.3,.71-.54,1.09-.72-.61-.29-1.23-.64-1.86-1.05-3.67-2.42-7.08-2.77-7.43-2.8-.35,.03-3.76,.37-7.43,2.8-.63,.41-1.25,.77-1.86,1.05,.38,.18,.77,.42,1.09,.72,.82,.77,1.81,1.52,3.52,1.81,1.39,.24,3.18-.08,4.05-.23,.36-.06,.52-.09,.64-.09Z"/>
        </g>
        <path class="cls-10" d="M75.17,81.33h0c-.27,.02-2.5,.26-5.39,1.75-.08,0-.15,0-.23-.01,2.97-1.47,5.31-1.71,5.61-1.74Z"/>
        <path class="cls-10" d="M80.86,83.07c-.07,0-.15,0-.23,.01-2.75-1.42-4.92-1.71-5.34-1.75,.44,.04,2.71,.32,5.57,1.74Z"/>
        <path class="cls-6" d="M92.56,86.84c-.33,.1-.68,.19-1.04,.27-1.33,.25-2.74,.16-4.25-.37-1.09-.38-2.25-.99-3.47-1.86-4.49-3.2-8.59-3.47-8.59-3.47,0,0-4.1,.26-8.59,3.47-1.22,.87-2.37,1.48-3.47,1.86-1.51,.53-2.92,.62-4.25,.37-.36-.08-.71-.17-1.04-.27,0,0,7.15-.33,7.8-5.43,.65-5.1-2.29-14.46,9.55-15.62,11.83,1.16,8.9,10.51,9.55,15.62,.65,5.1,7.8,5.43,7.8,5.43Z"/>
        <path class="cls-10" d="M82.91,84.23c-4.13-2.67-7.7-2.91-7.7-2.91,0,0-3.57,.23-7.7,2.91,5.43-4.1,3.16-7.87,3.16-7.87l4.53-1.87,4.53,1.87s-2.27,3.77,3.16,7.87Z"/>
        <path class="cls-12" d="M81.63,73.42c-1,.77,.05,2.18-1.75,2.89-1.8,.72-4.04,1.43-4.01,3.17,.03,1.74,.82,2.09,.82,2.09-.92-.21-1.47-.24-1.47-.24,0,0-.55,.04-1.47,.24,0,0,.79-.34,.82-2.09,.03-1.74-2.21-2.46-4.01-3.17-1.81-.72-.75-2.12-1.75-2.89-1-.77-1.42-1.95-.73-2.94,.78,2.22,2.61,2.11,2.61,2.11,.12,1.54,1.33,1.08,1.86,1.88,.53,.81,2.68,1,2.68,1,0,0,2.15-.19,2.68-1,.53-.81,1.74-.35,1.86-1.88,0,0,1.83,.11,2.61-2.11,.7,1,.27,2.18-.73,2.94Z"/>
        <g>
          <path class="cls-14" d="M82.65,69.05c-.36,3.69-2.91,3.53-2.91,3.53-.12,1.54-1.33,1.08-1.86,1.88-.53,.81-2.68,1-2.68,1,0,0-2.15-.19-2.68-1-.53-.81-1.74-.35-1.86-1.88,0,0-2.55,.15-2.91-3.53,0,0,2.16-3.49,7.44-3.57,5.29,.08,7.44,3.57,7.44,3.57Z"/>
          <path d="M79.74,72.58s-.08,.6-1.66,.33c-1.58-.27-1.58-3.01-.77-3.34s1.41,.15,1.61,.54c.21,.38-2.12,1.11,.81,2.48Z"/>
          <path d="M70.67,72.58s.08,.6,1.66,.33,1.58-3.01,.77-3.34c-.81-.33-1.41,.15-1.61,.54-.21,.38,2.12,1.11-.81,2.48Z"/>
        </g>
        <path class="cls-11" d="M60.33,87.6c-.5,0-1-.05-1.5-.14h-.01c-.37-.09-.72-.18-1.06-.28-1.93-.57-3.55-1.56-4.7-2.85-1.21-1.36-1.88-3.08-1.95-4.96-.16-4.49,1.56-9.16,4.7-12.81,1.49-1.73,3.38-3.15,5.62-4.21,1.97-.94,4.26-1.62,6.82-2.04,4.54-.75,9.34-.75,13.9,0,2.56,.42,4.85,1.11,6.82,2.04,2.24,1.06,4.13,2.48,5.62,4.21,3.14,3.65,4.86,8.32,4.7,12.81h0c-.07,1.88-.74,3.59-1.95,4.96-1.14,1.29-2.77,2.27-4.7,2.85-.34,.1-.69,.19-1.06,.28h-.01c-1.46,.28-2.91,.15-4.44-.39-1.15-.41-2.34-1.06-3.56-1.93-4.17-3.02-8.04-3.42-8.38-3.45-.34,.03-4.21,.43-8.38,3.45-1.21,.88-2.41,1.53-3.56,1.93-1,.36-1.98,.53-2.94,.53Zm-1.36-.84c1.33,.25,2.66,.13,4.06-.36,1.08-.38,2.22-1,3.37-1.84,4.52-3.27,8.6-3.58,8.78-3.59h.02s.02,0,.02,0c.17,.01,4.25,.31,8.78,3.59,1.16,.84,2.29,1.46,3.37,1.84,1.4,.5,2.73,.61,4.06,.36,.35-.08,.69-.17,1.01-.26,3.78-1.12,6.01-3.73,6.13-7.14,.15-4.31-1.5-8.8-4.53-12.32-2.69-3.12-6.74-5.15-12.02-6.02-4.48-.74-9.2-.74-13.66,0-5.28,.87-9.33,2.89-12.02,6.02-3.03,3.51-4.68,8-4.53,12.32,.12,3.42,2.36,6.02,6.13,7.14,.32,.1,.66,.18,1.01,.26Z"/>
        <g>
          <g>
            <path class="cls-8" d="M62.23,60.32s-1.55-7.14-7.18-7.66c-5.64-.52-5.33,10.25,2.18,8.58l5-.92Z"/>
            <path class="cls-10" d="M58.38,61.03h0s3.85-.71,3.85-.71c0,0-.46-2.1-1.77-4.11,0,0,.14,3.13-2.08,4.82Z"/>
            <path d="M55.05,52.66c4.37,.4,6.28,4.79,6.92,6.74-.58-2.79-3.18-7.35-6.01-7.89-2.83-.54-5.25,2-5.25,2-.08,1.23,.56,4.22,.56,4.22-.49-2.51,.83-5.34,3.79-5.07Z"/>
            <g>
              <path class="cls-14" d="M55.05,52.66c-2.3-.21-3.61,1.45-3.85,3.38,.26,3.96,3.18,5.78,6.29,4.36,2.45-1.12,2.46-3.79,2.3-5.1-1.1-1.33-2.63-2.45-4.74-2.64Z"/>
              <path class="cls-13" d="M58.41,53.97c-.91-.69-2.02-1.18-3.36-1.31-1.28-.12-2.25,.34-2.9,1.11-.28,.66-.41,1.44-.32,2.25,.24,2.25,1.99,3.93,3.92,3.77,1.93-.16,3.3-2.11,3.06-4.36-.06-.52-.19-1.02-.4-1.46Z"/>
              <ellipse class="cls-8" cx="52.24" cy="56.27" rx=".62" ry=".55"/>
              <ellipse class="cls-8" cx="58.88" cy="56.71" rx=".7" ry=".63"/>
            </g>
          </g>
          <path d="M55.71,61.78c-2.13,0-3.32-1.1-3.88-1.85-1.2-1.61-1.37-4.03-.4-5.74,.75-1.34,2.08-2.02,3.65-1.88,2.42,.22,4.49,1.67,5.98,4.2,1.11,1.88,1.5,3.67,1.52,3.74,.02,.09,0,.19-.05,.27-.05,.08-.14,.14-.23,.15l-4.99,.92c-.58,.13-1.11,.18-1.59,.18Zm-1.04-8.78c-1.14,0-2.06,.54-2.62,1.53-.83,1.48-.68,3.57,.35,4.97,1.01,1.36,2.69,1.85,4.75,1.4,0,0,0,0,.01,0l4.62-.85c-.17-.6-.58-1.89-1.35-3.19-1.39-2.34-3.21-3.63-5.42-3.83-.12-.01-.23-.02-.35-.02Z"/>
        </g>
      </g>
      <path class="cls-11" d="M107.93,1c6.58,0,8.61,4.76,9.01,8.86,.14,1.46,.08,2.83-.06,3.88-.55,4.18-1.5,16.33-3.31,17.44-1.81,1.1,3.08,10.18-1.1,12.94-.09,.06-.17,.12-.26,.18-.02,.01-.04,.02-.05,.04-.17,.12-.34,.24-.5,.37-.01,0-.02,.02-.03,.03-.17,.13-.33,.26-.49,.39,0,0-.01,0-.02,.01-.16,.14-.32,.27-.48,.41,0,0,0,0,0,0-.24,.21-.47,.42-.69,.63,0,0,0,0,0,0-.14,.14-.28,.27-.42,.41,0,0-.02,.02-.03,.03-.06,.06-.13,.13-.19,.19-.01,.01-.03,.03-.04,.04-.04,.04-.09,.09-.13,.13-.03,.03-.06,.06-.09,.09-.01,.01-.02,.02-.03,.03-.11,.11-.22,.22-.32,.33-.19,.19-.37,.38-.54,.57-.02,.02-.04,.04-.06,.06-.03,.03-.05,.06-.08,.08-.03,.03-.05,.05-.08,.08-.02,.02-.04,.04-.06,.07-.04,.05-.09,.09-.13,.13-.01,.01-.02,.02-.03,.03,0,0-.01,.01-.02,.02l-.02,.02s-.05,.05-.07,.07c-.02,.02-.04,.04-.06,.06-.02,.02-.04,.04-.06,.06,0,0-.02,.02-.02,.02,0,0-.01,.01-.02,.02-.01,.01-.02,.02-.04,.03-.03,.03-.07,.07-.1,.1,0,0-.02,.02-.03,.03,0,0,0,0,0,0-.04,.04-.09,.08-.13,.13,0,0,0,0-.01,.01,0,0-.02,.02-.03,.03-.03,.03-.06,.05-.08,.08,0,0,0,0,0,0,0,0,0,0-.01,.01,0,0-.02,.02-.03,.02,0,0,0,0,0,0,0,0,0,0,0,0-.03,.03-.06,.05-.09,.08-.01,.01-.03,.03-.04,.04-.04,.04-.09,.07-.13,.11,0,0,0,0,0,0,0,0,0,0,0,0-.01,0-.02,.02-.03,.03-.03,.03-.07,.06-.1,.08-.01,.01-.03,.02-.04,.03-.03,.02-.06,.04-.09,.07,0,0,0,0,0,0,0,0,0,0,0,0-.01,0-.02,.02-.04,.03-.03,.02-.06,.05-.1,.07-.01,0-.03,.02-.04,.03-.04,.03-.09,.06-.13,.09,0,0,0,0-.01,0-.04,.03-.08,.05-.12,.08-.01,0-.03,.02-.04,.03-.03,.02-.06,.04-.09,.05,0,0,0,0,0,0,0,0,0,0,0,0-.01,0-.02,.01-.03,.02,0,0,0,0,0,0,0,0,0,0,0,0-.03,.02-.06,.03-.1,.05-.01,0-.02,.01-.03,.02-.04,.02-.09,.04-.13,.06,0,0,0,0,0,0,0,0,0,0,0,0,0,0,0,0,0,0,0,0-.01,0-.02,0,0,0-.01,0-.02,0-.03,.01-.06,.03-.09,.04,0,0,0,0,0,0,0,0,0,0,0,0-.01,0-.03,.01-.04,.02-.03,.01-.06,.02-.1,.03-.01,0-.03,0-.04,.01,0,0,0,0,0,0,0,0,0,0,0,0-.04,.01-.07,.02-.11,.03,0,0-.02,0-.03,0,0,0,0,0,0,0,0,0,0,0,0,0-.04,.01-.09,.02-.13,.03,0,0,0,0,0,0,0,0,0,0,0,0,0,0,0,0-.01,0,0,0-.01,0-.02,0,0,0-.01,0-.02,0-.03,0-.06,.01-.09,.01,0,0,0,0,0,0,0,0,0,0,0,0-.01,0-.03,0-.04,0,0,0,0,0,0,0,0,0,0,0,0,0-.03,0-.05,0-.08,0,0,0,0,0-.01,0,0,0,0,0-.01,0,0,0-.02,0-.03,0,0,0,0,0,0,0,0,0,0,0,0,0-.04,0-.08,0-.12,0,0,0,0,0,0,0,0,0,0,0,0,0,0,0,0,0,0,0,0,0,0,0,0,0,0,0,0,0,0,0h0s-.04,0-.06,0c0,0,0,0,0,0h0c-.57,4.3-2.53,7.61-2.15,11.39,.71,7.18-4.13,10.84-4.13,10.84,0,0-.08,.05-.19,.16,.77,2.11,1.16,4.34,1.08,6.54-.13,3.75-2.69,6.38-6.39,7.47,0,0,0,0,0,0,0,0,0,0,0,0,0,0,0,0,0,0-.5,.17-1.01,.28-1.53,.35,0,0,0,0,0,0-.17,.02-.33,.04-.5,.04,0,0,0,0-.01,0-.13,0-.27,.01-.4,.01-.03,0-.06,0-.1,0,0,0-.02,0-.02,0-.08,0-.17,0-.25,0,0,0,0,0,0,0-.08,0-.16,0-.25-.02-.01,0-.02,0-.03,0-.08,0-.17-.02-.25-.03,0,0,0,0,0,0-.08,0-.16-.02-.25-.03-.01,0-.02,0-.03,0-.09-.01-.17-.03-.26-.04,0,0,0,0,0,0-.09-.02-.17-.03-.26-.05,0,0-.02,0-.03,0-.18-.04-.35-.08-.53-.14,0,0-.01,0-.02,0-.18-.05-.37-.11-.55-.18,0,0,0,0,0,0,0,0,0,0,0,0-.55-.19-1.11-.44-1.68-.76,0,0,0,0,0,0-.07-.04-.14-.08-.21-.11-.46,.16-1.15,.46-1.62,.9-.77,.72-1.86,1.61-3.77,1.94-.39,.07-.81,.1-1.23,.1-1.62,0-3.26-.41-3.53-.41s-1.91,.41-3.53,.41c-.42,0-.84-.03-1.23-.1-1.92-.33-3.01-1.22-3.77-1.94-.47-.44-1.15-.74-1.62-.9-.07,.04-.14,.08-.21,.11,0,0,0,0,0,0-.58,.31-1.14,.56-1.68,.76,0,0,0,0,0,0,0,0,0,0,0,0-.19,.07-.37,.13-.55,.18,0,0-.01,0-.02,0-.18,.05-.36,.1-.53,.14,0,0-.02,0-.03,0-.09,.02-.17,.04-.26,.05,0,0,0,0,0,0-.09,.02-.17,.03-.26,.04-.01,0-.02,0-.03,0-.08,.01-.16,.02-.25,.03,0,0,0,0,0,0-.08,0-.17,.02-.25,.03-.01,0-.02,0-.03,0-.08,0-.16,.01-.25,.02,0,0,0,0,0,0-.08,0-.17,0-.25,0,0,0-.02,0-.02,0-.03,0-.06,0-.1,0-.13,0-.27,0-.4-.01,0,0,0,0-.01,0-.17,0-.34-.02-.5-.04,0,0,0,0,0,0-.52-.06-1.03-.18-1.53-.35,0,0,0,0,0,0,0,0,0,0,0,0,0,0,0,0,0,0,0,0,0,0,0,0-3.69-1.1-6.26-3.72-6.39-7.47-.08-2.21,.31-4.43,1.08-6.54-.08-.07-.14-.12-.17-.14,0,0,0,0,0,0-.02-.01-.02-.02-.02-.02,0,0-.68-.51-1.5-1.54-.31-.38-.63-.84-.94-1.36-.94-1.58-1.79-3.79-1.77-6.63,0-.42,.03-.86,.07-1.3,.03-.34,.05-.67,.05-1,0-.33-.02-.66-.05-.98-.01-.11-.02-.22-.03-.33-.01-.11-.03-.22-.04-.32-.02-.16-.05-.32-.08-.49-.02-.11-.04-.22-.06-.32-.29-1.45-.76-2.91-1.19-4.45-.03-.11-.06-.23-.09-.34-.05-.17-.09-.35-.14-.52-.06-.23-.12-.47-.17-.71-.01-.06-.03-.12-.04-.18-.11-.48-.2-.97-.27-1.48-.01-.09-.02-.17-.04-.26-.01,0-.02,0-.04,0,0,0,0,0,0,0,0,0,0,0,0,0h0s0,0,0,0c-.09,0-.18,0-.27-.02,0,0-.01,0-.02,0-.04,0-.08,0-.11-.02-.01,0-.02,0-.03,0-.03,0-.06-.01-.09-.02,0,0,0,0,0,0,0,0,0,0,0,0-.01,0-.02,0-.03,0-.03,0-.06-.01-.09-.02-.01,0-.03,0-.04-.01-.03,0-.06-.02-.09-.03,0,0,0,0,0,0,0,0,0,0,0,0-.01,0-.03,0-.04-.01-.03-.01-.06-.02-.09-.03-.01,0-.02,0-.04-.01,0,0,0,0,0,0,0,0,0,0,0,0-.03-.01-.06-.02-.09-.04-.01,0-.02,0-.03-.01,0,0,0,0,0,0,0,0,0,0,0,0-.02-.01-.05-.02-.07-.03,0,0-.02,0-.03-.01,0,0,0,0-.01,0,0,0,0,0,0,0,0,0,0,0,0,0,0,0,0,0,0,0-.08-.04-.17-.09-.25-.14,0,0-.02-.01-.03-.02-.03-.02-.06-.04-.09-.06-.01,0-.02-.01-.03-.02,0,0,0,0-.01,0,0,0-.01,0-.02-.01-.02-.01-.04-.03-.06-.04-.02-.01-.03-.02-.05-.03,0,0,0,0,0,0,0,0,0,0,0,0-.02-.01-.04-.02-.05-.04,0,0,0,0-.01,0,0,0,0,0-.01,0-.01,0-.03-.02-.04-.03,0,0,0,0,0,0,0,0,0,0,0,0-.02-.02-.04-.03-.06-.05-.02-.01-.03-.02-.05-.04,0,0,0,0,0,0,0,0,0,0-.01-.01,0,0-.02-.01-.03-.02,0,0-.01-.01-.02-.02,0,0-.01,0-.02-.01-.01-.01-.03-.02-.04-.03,0,0,0,0,0,0,0,0,0,0,0,0,0,0-.02-.02-.03-.02,0,0-.02-.01-.03-.02,0,0-.02-.01-.02-.02-.01-.01-.03-.02-.04-.04-.02-.01-.03-.03-.05-.04-.02-.02-.05-.04-.07-.06,0,0,0,0,0,0,0,0-.01,0-.02-.01,0,0-.02-.01-.02-.02-.04-.03-.08-.07-.11-.1-.02-.02-.04-.04-.06-.05-.04-.03-.07-.06-.11-.1,0,0-.02-.02-.03-.03,0,0,0,0,0,0,0,0,0,0-.01-.01-.02-.02-.04-.04-.06-.06-.01,0-.02-.02-.03-.03,0,0,0,0-.01-.01,0,0,0,0-.01-.01-.02-.01-.03-.03-.05-.04-.02-.02-.03-.03-.05-.05,0,0,0,0,0,0,0,0,0,0,0,0-.03-.03-.07-.07-.1-.1,0,0,0,0-.01-.01,0,0,0,0,0,0,0,0,0,0,0,0-.09-.08-.17-.17-.26-.26-.01-.01-.02-.02-.03-.03-.08-.08-.16-.17-.24-.25-.02-.02-.04-.04-.05-.05-.08-.09-.17-.18-.26-.27,0,0-.01-.01-.02-.02-.09-.1-.19-.2-.29-.3-.29-.31-.6-.62-.93-.94-.01-.01-.03-.02-.04-.04-.04-.04-.08-.08-.13-.13-.01-.01-.03-.03-.04-.04-.07-.07-.14-.14-.21-.21-.03-.03-.05-.05-.08-.08-.04-.03-.07-.07-.11-.1-.04-.04-.08-.07-.12-.11-.05-.04-.09-.09-.14-.13-.04-.04-.08-.07-.12-.11-.03-.03-.06-.06-.09-.08-.05-.05-.11-.1-.17-.14-.03-.03-.06-.05-.09-.08-.05-.04-.1-.09-.15-.13-.03-.02-.06-.05-.08-.07-.07-.06-.14-.11-.21-.17-.02-.01-.03-.03-.05-.04-.06-.05-.13-.1-.19-.15-.02-.02-.05-.04-.07-.06-.08-.06-.16-.12-.23-.17,0,0-.01,0-.02-.01-.08-.06-.15-.11-.23-.16-.02-.02-.04-.03-.07-.05-.08-.06-.17-.12-.26-.17-4.18-2.76,.71-11.84-1.1-12.94-1.81-1.1-2.76-13.26-3.31-17.44-.13-.98-.19-2.25-.08-3.61,.34-4.16,2.3-9.13,9.03-9.13,.42,0,.86,.02,1.31,.06,.11,0,.21,.02,.31,.03,.02,0,.04,0,.07,0,.1,.01,.19,.03,.29,.04,0,0,.01,0,.02,0,.1,.02,.2,.04,.3,.06,.02,0,.04,0,.06,.01,.09,.02,.18,.04,.26,.06,.01,0,.03,0,.04,0,.1,.02,.2,.05,.29,.08,.01,0,.03,0,.04,.01,.09,.02,.17,.05,.26,.08,.02,0,.03,0,.05,.01,.1,.03,.19,.06,.29,.1,0,0,.01,0,.02,0,.09,.03,.18,.07,.26,.1,.02,0,.03,.01,.05,.02,.19,.08,.37,.16,.55,.25,.01,0,.03,.01,.04,.02,.18,.09,.36,.18,.53,.28,.01,0,.02,.01,.03,.02,.09,.05,.17,.1,.26,.15,0,0,0,0,0,0,.09,.06,.18,.11,.26,.17,0,0,.01,0,.02,.01,.08,.06,.17,.11,.25,.17,0,0,0,0,.01,0,.17,.12,.34,.25,.51,.38,0,0,0,0,.01,.01,.17,.13,.33,.27,.49,.42,0,0,0,0,.01,.01,.16,.14,.32,.29,.47,.45,0,0,0,0,0,0,.87,.86,1.64,1.87,2.34,2.96,0,0,0,0,0,0,0,0,0,0,0,0,0,.01,.02,.03,.02,.04,.07,.11,.13,.21,.2,.32,.01,.02,.02,.04,.04,.06,.07,.11,.14,.23,.21,.34,0,0,.01,.02,.02,.03,.07,.12,.14,.24,.21,.36,0,0,0,0,0,.01,.07,.12,.14,.25,.21,.37,0,.01,.01,.02,.02,.04,.07,.12,.13,.24,.2,.37,0,.01,.01,.03,.02,.04,.06,.12,.13,.25,.19,.37,0,.01,.01,.02,.02,.03,.07,.13,.13,.26,.19,.39,0,0,0,0,0,.01,.27,.54,.52,1.1,.76,1.65,0,0,0,0,0,0,1.25,2.85,2.17,5.78,2.97,8.06,0,.01,0,.02,.01,.03,.02,.05,.04,.11,.06,.16,0,0,0,0,0,.01,.02,.05,.04,.11,.06,.16,0,0,0,0,0,0,0,0,0,0,0,0,0,0,0,.02,0,.02,0,.02,.01,.04,.02,.06,.03,.07,.05,.15,.08,.22,0,.02,.01,.03,.02,.05,0,0,0,0,0,.01,.01,.03,.02,.07,.04,.1,0,.01,.01,.03,.02,.04,0,.02,.01,.03,.02,.05,0,.01,.01,.03,.02,.04,0,.02,.01,.04,.02,.06,.01,.04,.03,.07,.04,.11,0,.02,.01,.03,.02,.05,0,.01,0,.02,.01,.03,.02,.06,.04,.12,.07,.18,0,.02,.02,.04,.02,.06,.02,.04,.03,.08,.05,.12,0,0,0,.02,.01,.03,0,.01,0,.02,.01,.03,.02,.05,.04,.09,.05,.14,0,0,0,.02,0,.02,0,0,0,.01,0,.02,.02,.06,.05,.12,.07,.17,0,0,0,0,0,.01,0,0,0,.01,0,.02,.01,.03,.03,.06,.04,.09,0,.02,.01,.03,.02,.05,0,.01,0,.02,.01,.03,0,0,0,0,0,0,0,0,0,.01,0,.02,.02,.04,.03,.08,.05,.12,0,0,0,.01,0,.02,0,0,0,0,0,.01,.01,.03,.03,.06,.04,.08,.01,.03,.02,.05,.04,.08,0,0,0,0,0,0,.02,.05,.04,.1,.07,.14,0,0,0,.02,.01,.03,0,.02,.02,.03,.02,.05,.01,.03,.02,.05,.04,.08,0,0,0,.01,.01,.02,0,.02,.02,.03,.03,.05,.03,.05,.05,.1,.08,.15,.01,.02,.02,.05,.04,.07,0,0,0,.01,.01,.02,.02,.04,.04,.07,.06,.11,0,0,0,.01,.01,.02,.02,.04,.05,.08,.07,.12,.04,.07,.09,.14,.13,.21,.01,.02,.02,.04,.04,.06,.03,.05,.06,.1,.08,.14,.01,.02,.03,.05,.04,.07,.03,.05,.06,.11,.09,.16,0,.01,.01,.02,.02,.03,.04,.07,.08,.14,.11,.21,0,0,0,0,0,0,.03,.05,.05,.11,.08,.16,0,0,0,0,0,.01,0,0,0,0,0,0,0,0,0,.02,.01,.02,.02,.04,.04,.09,.06,.13,0,0,0,0,0,.01,0,0,0,0,0,0,0,.02,.02,.04,.02,.05,.01,.03,.02,.05,.04,.08,0,0,0,0,0,.01,0,0,0,.02,.01,.02,0,0,0,0,0,0,.02,.05,.04,.09,.06,.14,0,0,0,0,0,0,0,0,0,0,0,0,0,0,0,0,0,0,0,0,0,.01,0,.02,0,0,0,.02,.01,.03,.02,.04,.03,.07,.04,.11,0,0,0,0,0,0,0,0,0,0,0,0,0,0,0,.02,.01,.03,.02,.05,.04,.09,.05,.13,0,0,0,.02,.01,.03,.01,.04,.03,.07,.04,.11,0,0,0,.01,0,.02,0,0,0,0,0,.01,0,0,0,.01,0,.02,.02,.04,.03,.09,.04,.13,0,.01,0,.02,.01,.03,.01,.04,.03,.08,.04,.13,0,0,0,0,0,0,0,0,0,0,0,0,0,0,0,0,0,0,0,0,0,.01,0,.02,0,0,0,0,0,.01,0,0,0,.01,0,.02,.01,.03,.02,.07,.03,.1,0,0,0,0,0,0,0,0,0,0,0,0,0,0,0,.02,0,.03,.01,.03,.02,.07,.03,.1,0,0,0,.01,0,.02,0,0,0,0,0,.01,0,0,0,.01,0,.02,0,.03,.02,.07,.03,.1,0,0,0,.01,0,.02,0,0,0,0,0,.01,0,0,0,.01,0,.02,0,.03,.02,.07,.02,.1,0,0,0,.01,0,.02,0,0,0,0,0,0,0,0,0,.02,0,.02,0,.04,.02,.07,.02,.11,0,0,0,0,0,0,0,0,0,0,0,.01,0,0,0,0,0,.01,0,0,0,0,0,0,0,0,0,0,0,0,0,.03,.01,.06,.02,.08,0,0,0,.01,0,.02,0,.01,0,.02,0,.03,0,0,0,0,0,.01,0,.03,.01,.06,.02,.1,0,.01,0,.02,0,.03,0,.04,.01,.07,.02,.11,0,0,0,.01,0,.02,0,0,0,0,0,.01,0,0,0,.01,0,.02,0,.02,0,.03,0,.05,4.96-2.54,9.78-2.98,12.52-2.98,1.45,0,2.32,.12,2.32,.12,0,0,.87-.12,2.32-.12,2.74,0,7.57,.44,12.52,2.98,0,0,0,0,0,0,0,0,0,0,0,0,0,0,0,0,0,0,0-.05,.02-.11,.03-.17,0,0,0-.01,0-.02,.01-.06,.02-.12,.03-.18,0,0,0,0,0-.01,0-.04,.02-.08,.03-.12,0-.02,0-.03,.01-.05,0-.01,0-.02,0-.03,0-.02,.01-.05,.02-.07,.01-.05,.03-.11,.04-.16,0,0,0-.01,0-.02,0-.01,0-.03,.01-.05,0-.01,0-.03,.01-.04,0-.03,.01-.05,.02-.08,0-.01,0-.03,.01-.04,.01-.04,.02-.08,.03-.11,.02-.07,.04-.14,.07-.22,.05-.16,.11-.32,.18-.49,0,0,0,0,0,0,.03-.09,.07-.17,.11-.26,0-.01,.01-.03,.02-.04,.04-.09,.08-.17,.12-.26,0,0,0,0,0-.01,0,0,0-.02,.01-.02,.04-.08,.08-.17,.12-.25,0,0,0-.02,.01-.03,.05-.09,.09-.18,.14-.27,0-.01,.01-.02,.02-.03,.05-.09,.1-.19,.16-.28,0,0,0-.01,.01-.02,.06-.1,.12-.2,.18-.29,0,0,0,0,0,0,0,0,0,0,0,0,.02-.04,.05-.07,.07-.11,0,0,.01-.02,.02-.03,0,0,0,0,0,0,.02-.03,.03-.06,.05-.09,0-.01,.01-.02,.02-.03,0,0,0,0,0,0,0,0,0-.02,.01-.03,.02-.03,.03-.06,.05-.08,0,0,0,0,0,0,0,0,0,0,0,0,.02-.04,.05-.09,.07-.13,0,0,0-.02,.01-.03,0,0,0,0,0-.01,.02-.03,.03-.07,.05-.1,0-.01,.01-.03,.02-.05,.02-.03,.03-.07,.05-.1,0,0,0-.01,0-.02,0,0,0-.02,.01-.03,.02-.05,.04-.1,.07-.15,0,0,0,0,0,0,0-.01,.01-.03,.02-.04,.02-.04,.03-.08,.05-.12,0,0,0,0,0,0,0-.02,.01-.03,.02-.05,.02-.04,.04-.08,.05-.13,0-.01,.01-.03,.02-.04,.02-.06,.05-.11,.07-.17,0,0,0,0,0,0,0-.01,.01-.03,.02-.04,.01-.03,.02-.05,.03-.08,0-.02,.01-.03,.02-.05,0-.01,0-.03,.01-.04,0,0,0-.02,.01-.03,.01-.03,.02-.05,.03-.08,0-.01,.01-.03,.02-.04,0,0,0-.01,0-.02,0-.01,0-.03,.01-.04,.01-.04,.03-.08,.04-.11,0-.02,.02-.04,.03-.07,0,0,0-.01,0-.02,0-.01,0-.03,.01-.04,0-.02,.01-.03,.02-.05,.01-.03,.02-.05,.03-.08,.01-.03,.02-.05,.03-.08,.01-.04,.03-.08,.04-.12,0-.01,0-.02,.01-.03,0-.02,.01-.03,.02-.05,.01-.04,.03-.08,.04-.12,0-.02,.01-.03,.02-.05,0,0,0-.01,0-.02,.01-.03,.02-.06,.03-.09,0-.01,0-.02,.01-.03,.01-.03,.02-.06,.03-.09,0-.03,.02-.05,.03-.08,0,0,0-.02,0-.03,.01-.03,.02-.07,.03-.1,.01-.04,.03-.08,.04-.11,0-.03,.02-.05,.03-.08,.03-.07,.05-.15,.08-.23,0-.02,.02-.05,.02-.07,0,0,0,0,0,0,.02-.06,.04-.12,.06-.18,0,0,0-.01,0-.02,.02-.05,.03-.1,.05-.15,.03-.07,.05-.15,.08-.22,.03-.1,.07-.19,.1-.29,.02-.05,.03-.09,.05-.14,.12-.35,.24-.71,.37-1.07,0,0,0-.02,0-.02,.68-1.97,1.47-4.17,2.44-6.3,0,0,0,0,0,0h0s0,0,0-.01c.07-.14,.13-.29,.2-.43,0,0,0,0,0,0,.06-.13,.13-.26,.19-.4,0-.01,.01-.03,.02-.04,0,0,0,0,0,0,0,0,0,0,0,0,.07-.15,.14-.29,.22-.43,0,0,0,0,0,0,.07-.15,.15-.29,.22-.43h0s0,0,0,0c0,0,0-.02,.01-.03,.05-.09,.09-.17,.14-.26,0,0,0,0,0,0,0,0,0,0,0,0,0,0,0-.02,.01-.02,.1-.18,.2-.36,.3-.54,0,0,0,0,0,0,0,0,0,0,0,0,0,0,0-.01,.01-.02,.04-.07,.08-.14,.12-.21,0-.01,.01-.02,.02-.04,0,0,0,0,0,0,0,0,0,0,0,0,.11-.18,.22-.37,.33-.55,0,0,0,0,0,0,0,0,0,0,0,0,0,0,.01-.02,.02-.02,.04-.06,.08-.13,.12-.19,0-.01,.02-.03,.03-.04,0,0,0,0,0-.01,0,0,0,0,0,0,.57-.89,1.2-1.73,1.88-2.47,0,0,0,0,0,0,.15-.16,.3-.32,.46-.47,0,0,0,0,.01-.01,.15-.15,.31-.3,.47-.44,0,0,.01-.01,.02-.02,.16-.14,.32-.28,.48-.41,0,0,.01-.01,.02-.02,.08-.06,.16-.13,.24-.19,0,0,0,0,0,0,.08-.06,.17-.13,.26-.19,0,0,.01,0,.02-.01,.08-.06,.16-.11,.24-.17,0,0,.02-.01,.02-.02,.09-.06,.17-.11,.26-.17,0,0,0,0,0,0,.08-.05,.17-.1,.25-.15,.01,0,.02-.01,.03-.02,.17-.1,.35-.2,.53-.28,.01,0,.03-.01,.04-.02,.18-.09,.36-.17,.55-.25,.02,0,.03-.01,.05-.02,.09-.04,.18-.07,.27-.1,0,0,.01,0,.02,0,.1-.03,.19-.07,.29-.1,.01,0,.03,0,.04-.01,.09-.03,.17-.05,.26-.08,.01,0,.03,0,.04-.01,.1-.03,.2-.05,.3-.08,.01,0,.02,0,.04,0,.09-.02,.18-.04,.27-.06,.02,0,.04,0,.05-.01,.1-.02,.2-.04,.31-.06,0,0,.01,0,.02,0,.1-.02,.19-.03,.29-.04,.02,0,.04,0,.06,0,.1-.01,.21-.02,.31-.03,.46-.04,.89-.06,1.31-.06M107.93,0C107.48,0,107.01,.02,106.53,.06c-.11,0-.22,.02-.35,.04-.02,0-.05,0-.07,0-.11,.01-.22,.03-.32,.05,0,0-.02,0-.02,0-.11,.02-.22,.04-.34,.06-.01,0-.03,0-.04,0h-.02c-.1,.02-.2,.05-.3,.07h0s-.02,0-.03,0c-.11,.03-.22,.06-.33,.09-.01,0-.02,0-.03,0h-.01c-.1,.03-.19,.06-.29,.09h-.01s-.02,.01-.04,.02c-.11,.04-.22,.07-.32,.11,0,0-.01,0-.02,0-.09,.03-.19,.07-.29,.11h-.01s-.04,.02-.04,.02c-.2,.08-.41,.17-.61,.27l-.05,.02c-.2,.1-.4,.2-.59,.31l-.03,.02h0c-.1,.06-.19,.12-.28,.17,0,0,0,0,0,0-.1,.06-.19,.12-.29,.19h-.02s0,.02,0,.02c-.09,.06-.18,.12-.26,.18h0s-.01,.01-.01,.01c-.09,.07-.19,.14-.28,.2,0,0,0,0,0,0-.08,.06-.17,.13-.26,.2h0s-.02,.02-.02,.02c-.18,.14-.35,.29-.52,.44h0s-.02,.02-.02,.02c-.17,.15-.34,.31-.5,.47h-.01s0,.02,0,.02c-.16,.16-.33,.33-.49,.51,0,0,0,0,0,0,0,0,0,0,0,0-.68,.75-1.35,1.62-1.98,2.6h0s0,.02,0,.02c0,.01-.01,.02-.02,.03h0c-.04,.08-.08,.15-.13,.21h0s0,.01,0,.01c0,.01-.01,.02-.02,.03-.11,.18-.22,.36-.33,.55,0,0,0,.01-.01,.02v.02s-.02,.01-.02,.01c-.04,.07-.08,.14-.13,.22h0s0,.02,0,.02c0,0,0,0,0,.01-.1,.18-.21,.37-.31,.56h0s0,.02,0,.02c0,0,0,.01-.01,.02-.04,.08-.09,.17-.13,.25h0s-.01,.03-.01,.03c0,0,0,0,0,.01-.08,.14-.15,.29-.23,.44,0,0,0,0,0,0-.07,.14-.14,.28-.21,.43,0,0,0,.02-.01,.03v.03s-.02,.01-.02,.01c-.06,.13-.13,.27-.19,.4h0s0,0,0,0c-.07,.15-.14,.3-.21,.44h0s0,.02,0,.02c-.97,2.12-1.76,4.32-2.47,6.38h0s0,.02,0,.02c-.1,.3-.2,.59-.3,.88l-.07,.2-.02,.07-.02,.07-.1,.29-.08,.22-.05,.15h0s-.06,.19-.06,.19h0s0,0,0,0v.03s-.02,.04-.02,.04c-.03,.07-.05,.15-.08,.22,0,0,0,0,0,.01,0,.02-.01,.04-.02,.06,0,0,0,0,0,.01l-.02,.05-.02,.06s0,0,0,0v.02s-.02,.04-.03,.06c0,0,0,0,0,0v.03s-.01,0-.01,0v.02s-.03,.05-.03,.05l-.02,.06v.02s-.01,.01-.01,.01v.02s0,0,0,0v.03s-.03,.06-.03,.06h0s0,.01,0,.01v.03s-.02,.02-.02,.02h0s-.02,.08-.04,.11c0,.02-.01,.04-.02,.06h0s0,.03,0,.03c-.01,.04-.03,.08-.04,.12l-.03,.08-.02,.05v.03s-.02,.01-.02,.01v.03s-.02,.02-.02,.02h0s0,.02,0,.02h0s0,.02,0,.02l-.02,.04v.03s-.04,.07-.05,.11c0,.01,0,.03-.01,.04h0s0,.01,0,.01h0s0,.03,0,.03v.02s-.01,0-.01,0c0,.02-.02,.04-.03,.07,0,0,0,0,0,0h0s0,.02,0,.02h0s0,.04,0,.04v.03s-.02,.02-.02,.02c0,.02-.02,.05-.03,.07,0,0,0,0,0,.01,0,.01,0,.02-.01,.03,0,0,0,0,0,0-.02,.05-.04,.11-.07,.16v.02s-.02,.02-.02,.02c-.02,.04-.03,.08-.05,.12l-.02,.04h0s0,0,0,0c-.02,.04-.03,.07-.05,.1,0,0,0,0,0,.01,0,0,0,.02-.01,.03,0,0,0,0,0,0,0,0,0,0,0,0-.02,.05-.04,.09-.06,.14h0s0,.03,0,.03h0s-.03,.08-.04,.11c0,0,0,.01,0,.02h0s-.01,.02-.02,.04c-.01,.02-.02,.05-.04,.07,0,0,0,.01-.01,.02,0,0,0,0,0,0h0s0,.02,0,.02c-.02,.04-.04,.08-.06,.11,0,0,0,.02-.01,.02-.01,.02-.02,.04-.03,.06h0s0,.03,0,.03h0s0,0,0,0h0v.02s-.02,.02-.02,.03c0,.02-.02,.04-.03,.05,0,0,0,.01-.01,.02h0s0,.02,0,.02c-.02,.03-.04,.06-.05,.09,0,0,0,0,0,0-.06,.1-.12,.2-.19,.32h0s-.01,.02-.01,.02c-.06,.1-.12,.2-.17,.31l-.02,.03h0c-.06,.11-.11,.21-.16,.31v.02s-.01,0-.01,0c-.04,.09-.09,.18-.13,.27,0,.01-.01,.02-.02,.03,0,0,0,.01,0,.02-.04,.09-.08,.18-.12,.28h0s-.02,.04-.02,.04c-.04,.1-.08,.2-.12,.29h0c-.07,.19-.14,.37-.2,.55-.03,.08-.05,.16-.08,.24,0,0,0,0,0,0-1.95-.89-4.04-1.55-6.2-1.98-1.87-.37-3.76-.56-5.63-.56-1.18,0-2,.08-2.32,.12-.31-.04-1.13-.12-2.32-.12-1.86,0-3.75,.19-5.63,.56-2.17,.43-4.25,1.09-6.2,1.98,0-.03-.02-.06-.03-.09v-.02s0,0,0-.01c0,0,0,0,0,0v-.02s0,0,0,0c0,0,0,0,0,0-.01-.04-.03-.09-.04-.13h0s0-.04,0-.04c-.02-.05-.03-.09-.05-.14h0s0-.01,0-.01c0,0,0-.02,0-.02,0,0,0-.02,0-.03-.01-.04-.03-.08-.04-.12h0s0-.03,0-.03c-.02-.05-.04-.1-.06-.15h0s0-.02,0-.02c0,0,0,0,0,0,0,0,0,0,0-.01h0s-.03-.08-.05-.12h0s0-.03,0-.03c0,0,0,0,0-.01h0s0-.02,0-.02c0,0,0,0,0,0,0,0,0,0,0,0-.02-.05-.04-.09-.06-.14,0,0,0-.01,0-.02h0s0-.02-.01-.02h0s-.02-.06-.03-.08v-.02s-.01-.02-.01-.02c0-.01-.01-.03-.02-.04,0,0,0-.01,0-.02h0c-.02-.05-.04-.1-.07-.15,0,0,0-.02-.01-.02,0,0,0,0,0,0h0s0,0,0,0c-.03-.06-.06-.12-.09-.17h0c-.04-.09-.08-.17-.12-.24v-.03s-.02,0-.02,0c-.03-.06-.07-.12-.1-.18-.01-.02-.03-.05-.04-.07-.03-.05-.06-.1-.09-.16v-.02s-.03-.03-.04-.05c-.05-.08-.09-.15-.14-.22-.02-.03-.04-.06-.06-.09h0s0-.01,0-.01c-.02-.03-.03-.06-.05-.09h0s0-.02,0-.02c0-.01-.01-.03-.02-.04v-.02h0s-.05-.09-.07-.14v-.02s-.02-.02-.02-.02h0s0-.02,0-.02c0-.02-.02-.03-.02-.05v-.02s-.02-.02-.02-.02v-.02s-.01-.01-.02-.02c0,0,0-.01-.01-.02-.02-.04-.04-.08-.06-.12,0,0,0-.01,0-.02,0-.01-.01-.02-.02-.04v-.03s-.02-.03-.02-.03c0-.02-.01-.03-.02-.05h0s0,0,0,0c0,0,0-.01,0-.02-.02-.04-.03-.07-.05-.11h0s0-.03,0-.03h0s0-.01,0-.01c0,0,0-.02-.01-.02v-.02s-.02-.02-.02-.02h0s-.02-.06-.03-.09h0s0-.01,0-.01c0,0,0-.02,0-.02-.02-.05-.04-.1-.06-.16,0,0,0,0,0-.01,0,0,0,0,0,0h0s0-.02,0-.02c-.02-.04-.04-.09-.05-.13v-.02s-.01,0-.01,0v-.02s-.01,0-.01-.01v-.02s-.03-.05-.04-.08c0,0,0-.01,0-.02,0-.01-.01-.03-.01-.04,0,0,0-.02,0-.02-.02-.05-.04-.1-.06-.16,0,0,0,0,0-.01v-.03s-.02-.03-.02-.03v-.02s-.05-.11-.05-.11v-.04s-.02-.02-.02-.02h0s0-.04,0-.04c0,0,0-.01,0-.02,0-.01,0-.02-.01-.04h0s0-.02,0-.02v-.03s-.05-.1-.05-.1h0s0-.01,0-.01c0,0,0,0,0-.01h0s0-.02,0-.02c0,0,0-.01,0-.02-.03-.07-.05-.14-.08-.22v-.02s-.02-.04-.02-.04h0s0-.02,0-.02c0,0,0,0,0,0,0,0,0,0,0,0,0,0,0,0,0,0-.02-.05-.04-.11-.06-.16v-.02s-.06-.15-.06-.15v-.03c-.18-.49-.36-1.02-.55-1.57-.69-2.01-1.47-4.29-2.46-6.55,0,0,0,0,0,0-.26-.59-.52-1.16-.78-1.69h0s0-.01,0-.01c-.06-.13-.13-.26-.2-.4h0s-.01-.03-.01-.03c-.07-.13-.13-.26-.2-.38l-.02-.04c-.07-.13-.14-.26-.2-.38v-.02s-.02-.01-.02-.01c-.08-.14-.15-.26-.21-.38h0c-.07-.14-.14-.26-.22-.39h0s-.01-.03-.01-.03c-.07-.11-.14-.23-.21-.35v-.02s-.04-.04-.04-.04c-.07-.11-.14-.22-.21-.33h0s-.01-.03-.02-.04c0,0-.01-.02-.02-.02-.77-1.2-1.61-2.25-2.47-3.11h0s0,0,0,0c-.17-.17-.34-.33-.51-.48h0s0-.01,0-.01c-.17-.16-.35-.31-.53-.45h-.01s0-.01,0-.01c-.18-.15-.37-.29-.55-.42h-.01c-.09-.07-.18-.13-.27-.19h0s-.02-.01-.02-.01c-.1-.07-.2-.13-.29-.19,0,0,0,0,0,0-.09-.05-.18-.11-.28-.17h-.01s-.02-.02-.02-.02c-.19-.11-.39-.22-.59-.32l-.05-.02c-.2-.1-.41-.19-.61-.27l-.04-.02h-.01c-.1-.05-.2-.08-.29-.12h-.02c-.1-.05-.21-.08-.32-.12-.01,0-.02,0-.04-.01h-.01c-.09-.03-.19-.06-.28-.09h-.01s-.02-.01-.04-.01c-.11-.03-.22-.06-.33-.09-.01,0-.02,0-.03,0h0c-.1-.02-.19-.05-.29-.07h-.02s-.03,0-.05-.01c-.12-.02-.23-.04-.34-.06,0,0-.02,0-.02,0-.1-.02-.2-.03-.32-.05-.02,0-.05,0-.07,0-.13-.02-.24-.03-.35-.04C43.41,.02,42.93,0,42.48,0c-1.74,0-3.3,.31-4.62,.94-1.21,.57-2.25,1.39-3.07,2.45-1.65,2.11-2.18,4.79-2.33,6.66-.13,1.61-.02,2.97,.09,3.82,.1,.78,.22,1.84,.35,3.06,.3,2.69,.67,6.04,1.15,8.88,.78,4.54,1.51,5.69,2.19,6.16,.02,.1,.06,.36,0,.97-.07,.62-.22,1.4-.38,2.22-.32,1.62-.68,3.45-.64,5.15,.06,2.16,.79,3.72,2.19,4.64,.07,.05,.15,.1,.24,.16,.02,.01,.04,.03,.06,.04,.08,.05,.15,.11,.22,.15h.02c.07,.06,.14,.11,.22,.18,.02,.02,.05,.03,.07,.05,.06,.05,.12,.09,.18,.14l.02,.02,.02,.02c.07,.05,.13,.1,.19,.16,.03,.02,.05,.04,.08,.06,.05,.04,.1,.08,.15,.12,.03,.02,.06,.05,.09,.07,.05,.05,.11,.09,.16,.14,.03,.03,.06,.05,.09,.08,.04,.03,.07,.07,.11,.1,.05,.04,.09,.08,.13,.12,.04,.03,.07,.07,.11,.1,.03,.03,.07,.06,.1,.1,.03,.02,.05,.05,.08,.07,.07,.07,.14,.13,.21,.2l.02,.02,.02,.02s.08,.08,.12,.12l.03,.03h0c.33,.33,.64,.66,.91,.93,.09,.09,.17,.18,.25,.26l.03,.03h.01s0,.02,0,.02c.09,.09,.17,.18,.26,.27l.05,.05h0c.08,.1,.17,.18,.25,.26l.03,.03h0c.09,.1,.18,.19,.27,.28h0s0,0,0,.01c0,0,0,0,0,0h0s0,0,0,0c.03,.03,.07,.06,.1,.1,.01,.01,.02,.02,.03,.03,0,0,.02,.02,.03,.03h.01s.05,.06,.05,.06h0s0,0,0,0c0,0,0,0,.01,.01,0,0,0,0,.01,.01h.01s.02,.03,.02,.03h.01s.03,.04,.05,.06h0s.01,.02,.02,.02c0,0,0,0,0,0,0,0,.02,.02,.02,.02h0s.08,.08,.12,.11c.02,.02,.04,.04,.06,.06,.04,.04,.08,.07,.13,.11h0s.02,.02,.02,.02h.01s0,.02,.01,.02c.02,.02,.04,.04,.06,.05h.01s.01,.02,.01,.02c.01,.01,.03,.02,.04,.04,.02,.01,.03,.02,.05,.04l.02,.02s.01,.01,.02,.02h0s.01,.01,.01,.01l.03,.02s0,0,0,0,0,0,0,0c.02,.01,.03,.03,.05,.04h0s.01,.02,.02,.02h.01s0,.01,0,.01h0s.02,.02,.02,.02h0s0,0,0,0h.02s0,.02,.01,.02h0s.03,.02,.04,.03h0s.05,.04,.07,.06c0,0,0,0,0,0,0,0,0,0,0,0h.01s.03,.03,.03,.03h.02s0,.02,0,.02h.02s.03,.03,.05,.04h.01s0,0,0,0c0,0,0,0,.01,0h0s.03,.02,.05,.04c.02,.02,.05,.03,.07,.05h0s0,0,0,0c0,0,.02,.01,.03,.02h0s.02,.02,.03,.02c.04,.02,.07,.05,.11,.07h0s.02,.02,.03,.02c.1,.06,.21,.12,.31,.17,0,0,0,0,0,0h0s0,0,0,0c0,0,0,0,0,0h0s0,0,.01,0c0,0,.02,0,.03,.01h0s0,0,0,0c.02,.01,.05,.02,.07,.03h0s.02,0,.02,.01c0,0,0,0,0,0,0,0,.02,0,.02,.01h0s.07,.03,.1,.04c0,0,.01,0,.02,0,0,0,0,0,.01,0,.01,0,.02,0,.03,.01h0s.08,.03,.12,.05c.02,0,.03,.01,.05,.02,0,0,0,0,0,0,0,0,0,0,0,0,.04,.01,.07,.02,.11,.03,.02,0,.04,.01,.06,.02,.03,0,.06,.02,.1,.03,.06,.34,.13,.69,.21,1.06,.01,.06,.03,.12,.04,.19,.05,.24,.11,.48,.18,.73,.04,.17,.09,.35,.14,.54,.03,.12,.06,.24,.1,.35,.12,.45,.25,.9,.38,1.33,.31,1.06,.6,2.06,.79,3.05,.02,.1,.04,.2,.06,.3,.03,.15,.05,.31,.07,.45,.01,.1,.03,.2,.04,.3,.01,.1,.02,.2,.03,.3,.03,.3,.04,.61,.04,.89,0,.3-.01,.61-.04,.9-.05,.47-.07,.94-.08,1.39-.02,2.59,.62,5,1.91,7.15,.31,.51,.65,1.01,1.02,1.47,.52,.65,.99,1.12,1.3,1.4-.68,2.08-.99,4.18-.91,6.26,.07,2.03,.8,3.88,2.11,5.36,1.22,1.38,2.94,2.42,4.97,3.03,0,0,.01,0,.02,0,.56,.19,1.13,.32,1.7,.39,0,0,0,0,0,0,.19,.02,.38,.04,.57,.05h.01c.15,0,.31,.01,.46,.01,.04,0,.07,0,.11,0h0s.02,0,.02,0c.1,0,.19,0,.28,0,0,0,0,0,0,0h0s0,0,0,0c0,0,0,0,0,0,.09,0,.18-.01,.28-.02h0s.03,0,.03,0c.1,0,.19-.02,.28-.03,0,0,0,0,.01,0,.08-.01,.17-.02,.27-.04h0s.03,0,.03,0c.1-.02,.19-.03,.29-.05,0,0,0,0,0,0,.09-.02,.18-.04,.28-.06h0s.02,0,.02,0c.2-.04,.39-.09,.59-.15h.02c.2-.06,.4-.13,.61-.2,0,0,0,0,.01,0,.53-.19,1.08-.43,1.63-.71,.37,.16,.67,.35,.87,.53,.94,.88,2.18,1.83,4.29,2.2,.42,.07,.89,.11,1.4,.11,1.24,0,2.44-.21,3.16-.34,.13-.02,.29-.05,.38-.06,.08,.01,.24,.04,.38,.06,.72,.13,1.92,.34,3.16,.34,.51,0,.98-.04,1.4-.11,2.11-.37,3.35-1.32,4.29-2.2,.2-.18,.5-.37,.87-.53,.55,.29,1.09,.53,1.63,.71,0,0,0,0,0,0,.2,.07,.41,.14,.61,.19h.01s0,0,0,0c.2,.06,.4,.11,.59,.15h.02s0,0,0,0c.1,.02,.19,.04,.28,.06,0,0,0,0,0,0,.09,.02,.19,.03,.29,.05h.03s0,0,0,0c.1,.01,.19,.03,.27,.04h0s0,0,0,0c.09,.01,.18,.02,.28,.03h.03s0,0,0,0c.1,0,.19,.01,.27,.02,0,0,0,0,0,0,.09,0,.18,0,.28,0h.02s0,0,0,0c.04,0,.07,0,.11,0,.15,0,.31,0,.46-.01h.01c.19-.01,.38-.03,.57-.05,0,0,0,0,0,0,.57-.07,1.14-.2,1.7-.39,0,0,.01,0,.02,0,2.03-.61,3.75-1.65,4.97-3.03,1.31-1.48,2.04-3.33,2.11-5.36,.07-2.07-.23-4.18-.91-6.26,.49-.44,1.38-1.34,2.21-2.68,.7-1.14,1.23-2.37,1.57-3.66,.42-1.61,.55-3.32,.37-5.07-.2-2.06,.35-3.98,.99-6.19,.39-1.33,.78-2.69,1.04-4.2,.02,0,.03,0,.05-.01,0,0,0,0,.01,0,0,0,0,0,.01,0,.01,0,.02,0,.03,0,.05-.01,.09-.03,.14-.04,0,0,0,0,.01,0,0,0,0,0,0,0,.01,0,.03,0,.04-.01h0s.09-.03,.13-.05h0s.02-.01,.04-.02c0,0,.01,0,.02,0,0,0,0,0,0,0,.03-.01,.07-.03,.1-.04h.01s0,0,0,0c0,0,.02,0,.03-.01,0,0,0,0,0,0,0,0,.02,0,.03-.01,0,0,0,0,0,0,.05-.02,.1-.05,.16-.08,.01,0,.02-.01,.04-.02h0s.07-.04,.11-.06c0,0,0,0,0,0,0,0,.02,0,.02-.01,.01,0,.02-.01,.03-.02h0s0,0,0,0c0,0,0,0,0,0,.04-.02,.07-.04,.11-.06h.01s.03-.02,.04-.03c.05-.03,.09-.06,.14-.09,0,0,.01,0,.02-.01,.05-.04,.1-.07,.16-.11,.01,0,.02-.02,.03-.02h.01s.07-.06,.11-.09h0s.03-.03,.03-.03h0s.02,0,.02,0c0,0,0,0,0,0h.01s.06-.06,.09-.08h.01s.02-.03,.03-.04c.04-.03,.08-.06,.11-.09h0s.02-.02,.03-.03c0,0,.02-.01,.03-.02,.04-.04,.09-.07,.13-.11l.04-.03h.01s.06-.06,.09-.09c0,0,0,0,.01-.01h0s0,0,0,0l.03-.02h.02s.01-.03,.01-.03c.03-.03,.06-.05,.09-.08h0s.01-.02,.01-.02h0s0,0,0,0c0,0,.01-.01,.02-.02,.02-.02,.04-.04,.06-.06,.02-.02,.05-.04,.07-.07,0,0,0,0,.01-.01h.01s0-.02,0-.02c.04-.04,.07-.07,.11-.11h.01s.02-.03,.02-.03h0s.02-.02,.03-.03h.01s0-.02,0-.02c.02-.02,.04-.04,.06-.06l.06-.06s.05-.05,.07-.07l.02-.02s0,0,.01-.01h0s0-.01,0-.01h0s0,0,0,0l.02-.02s.09-.09,.14-.14l.04-.05,.02-.02,.08-.08,.08-.09,.06-.06c.1-.1,.2-.21,.3-.31,.08-.08,.16-.17,.25-.26,.1-.11,.21-.22,.32-.33l.02-.02v-.02s.1-.09,.1-.09c.04-.04,.08-.09,.13-.13l.02-.02,.02-.02c.06-.06,.12-.12,.19-.19h.01s.01-.03,.01-.03c.14-.14,.27-.27,.4-.39,0,0,0,0,0,0,.23-.22,.44-.41,.66-.6,0,0,0,0,0,0,0,0,0,0,0,0,.15-.13,.3-.26,.46-.39h0s0-.01,0-.01c.15-.13,.31-.25,.46-.37h0s.03-.02,.03-.02c.15-.12,.31-.23,.47-.34l.05-.03c.09-.06,.17-.12,.24-.16,1.39-.92,2.13-2.48,2.19-4.64,.05-1.7-.32-3.53-.64-5.15-.16-.82-.32-1.6-.38-2.22-.07-.61-.03-.87,0-.97,.68-.47,1.41-1.62,2.19-6.16,.49-2.85,.86-6.19,1.15-8.88,.14-1.23,.25-2.29,.35-3.06,.17-1.31,.19-2.76,.06-4.11-.26-2.63-1.09-4.87-2.4-6.5-.83-1.02-1.86-1.82-3.06-2.36C111.16,.3,109.64,0,107.93,0h0Z"/>
    </g>
    <g>
      <path d="M51.35,71.05c-1.19-3.49-5.59-6.08-10.83-6.08s-9.92,2.76-10.93,6.43c-1.25,.92-2.06,2.4-2.06,4.07,0,2.8,2.26,5.06,5.06,5.06,.18,0,.37-.01,.55-.03,1.14,1.16,2.72,1.88,4.47,1.88,1.14,0,2.21-.31,3.13-.84,.92,.53,1.99,.84,3.13,.84,1.75,0,3.34-.72,4.47-1.88,.18,.02,.36,.03,.55,.03,2.8,0,5.06-2.27,5.06-5.06,0-1.9-1.05-3.55-2.6-4.42Zm-2.44,8.37c.05-.31-.03-.63-.08-.93-.05-.37-.13-.74-.27-1.09-.13-.35-.29-.68-.48-.99l-.11,.04c0,.18,.03,.35,.04,.53,0,.18,.01,.35,0,.52,0,.17,0,.34-.03,.51,0,.17-.03,.33-.05,.49-.02,.16-.07,.32-.12,.48-.05,.16-.07,.31-.06,.47,0,.02,0,.03,0,.05l-.23,.23c-.98,1-2.28,1.55-3.68,1.55-.9,0-1.79-.24-2.57-.69l-.07-.04c-.05-.14-.09-.28-.14-.42-.04-.09-.08-.19-.11-.28-.04-.09-.09-.18-.14-.27-.11-.18-.2-.37-.27-.57-.06-.21-.13-.41-.16-.63-.05-.21-.08-.43-.1-.66-.04-.22-.02-.45-.04-.68l.02-.69-.11-.03c-.09,.22-.18,.44-.25,.67-.06,.23-.14,.46-.18,.7-.09,.48-.11,.98-.06,1.49,.04,.25,.05,.51,.11,.76,.02,.13,.07,.25,.12,.37,.04,.11,.11,.21,.18,.31-.76,.42-1.62,.64-2.49,.64-1.39,0-2.7-.55-3.68-1.55l-.07-.07c-.02-.11-.04-.21-.06-.32-.02-.1-.05-.2-.08-.29-.03-.1-.07-.19-.1-.29-.08-.19-.14-.39-.19-.6-.03-.21-.07-.43-.07-.64-.02-.22-.02-.44,0-.66,0-.23,.04-.45,.05-.68l.11-.68-.1-.04c-.12,.21-.24,.41-.34,.63-.09,.22-.2,.44-.27,.68-.16,.46-.24,.96-.26,1.46,0,.25-.02,.51,0,.77,0,.13,.03,.26,.07,.39,0,.02,.01,.03,.01,.05-.01,0-.03,0-.04,0-2.18,0-3.95-1.77-3.95-3.95,0-1.26,.59-2.42,1.61-3.18l.31-.23,.1-.37c.9-3.25,5.05-5.61,9.86-5.61s8.72,2.24,9.77,5.33l.14,.4,.37,.21c1.25,.7,2.03,2.02,2.03,3.45,0,2.17-1.76,3.93-3.92,3.95Z"/>
      <path class="cls-8" d="M52.83,75.47c0,2.17-1.76,3.93-3.92,3.95,.05-.31-.03-.63-.08-.93-.05-.37-.13-.74-.27-1.09-.13-.35-.29-.68-.48-.99l-.11,.04c0,.18,.03,.35,.04,.53,0,.18,.01,.35,0,.52,0,.17,0,.34-.03,.51,0,.17-.03,.33-.05,.49-.02,.16-.07,.32-.12,.48-.05,.16-.07,.31-.06,.47,0,.02,0,.03,0,.05l-.23,.23c-.98,1-2.28,1.55-3.68,1.55-.9,0-1.79-.24-2.57-.69l-.07-.04c-.05-.14-.09-.28-.14-.42-.04-.09-.08-.19-.11-.28-.04-.09-.09-.18-.14-.27-.11-.18-.2-.37-.27-.57-.06-.21-.13-.41-.16-.63-.05-.21-.08-.43-.1-.66-.04-.22-.02-.45-.04-.68l.02-.69-.11-.03c-.09,.22-.18,.44-.25,.67-.06,.23-.14,.46-.18,.7-.09,.48-.11,.98-.06,1.49,.04,.25,.05,.51,.11,.76,.02,.13,.07,.25,.12,.37,.04,.11,.11,.21,.18,.31-.76,.42-1.62,.64-2.49,.64-1.39,0-2.7-.55-3.68-1.55l-.07-.07c-.02-.11-.04-.21-.06-.32-.02-.1-.05-.2-.08-.29-.03-.1-.07-.19-.1-.29-.08-.19-.14-.39-.19-.6-.03-.21-.07-.43-.07-.64-.02-.22-.02-.44,0-.66,0-.23,.04-.45,.05-.68l.11-.68-.1-.04c-.12,.21-.24,.41-.34,.63-.09,.22-.2,.44-.27,.68-.16,.46-.24,.96-.26,1.46,0,.25-.02,.51,0,.77,0,.13,.03,.26,.07,.39,0,.02,.01,.03,.01,.05-.01,0-.03,0-.04,0-2.18,0-3.95-1.77-3.95-3.95,0-1.26,.59-2.42,1.61-3.18l.31-.23,.1-.37c.9-3.25,5.05-5.61,9.86-5.61s8.72,2.24,9.77,5.33l.14,.4,.37,.21c1.25,.7,2.03,2.02,2.03,3.45Z"/>
      <path d="M120.83,71.39c-1.01-3.66-5.52-6.43-10.93-6.43s-9.63,2.59-10.83,6.08c-1.55,.86-2.6,2.52-2.6,4.42,0,2.8,2.27,5.06,5.06,5.06,.19,0,.37-.01,.55-.03,1.14,1.16,2.72,1.88,4.47,1.88,1.14,0,2.21-.31,3.13-.84,.92,.53,1.99,.84,3.13,.84,1.75,0,3.33-.72,4.47-1.88,.18,.02,.36,.03,.55,.03,2.8,0,5.06-2.27,5.06-5.06,0-1.67-.81-3.15-2.06-4.07Zm-3,8.02s-.03,0-.05,0c0-.02,.01-.03,.02-.05,.04-.13,.06-.26,.07-.39,.02-.26,0-.52,0-.77-.03-.51-.11-1-.26-1.46-.07-.23-.18-.45-.27-.68-.1-.22-.22-.42-.34-.63l-.1,.04,.11,.68c.02,.23,.06,.45,.05,.68,0,.23,.01,.44-.01,.66,0,.22-.04,.43-.07,.64-.05,.21-.11,.41-.19,.6-.03,.1-.08,.19-.1,.29-.03,.1-.05,.19-.08,.29-.02,.11-.04,.21-.06,.32l-.07,.07c-.98,1-2.28,1.55-3.68,1.55-.87,0-1.73-.23-2.49-.64,.07-.1,.13-.2,.18-.31,.05-.12,.09-.24,.12-.37,.06-.26,.07-.51,.11-.76,.04-.51,.03-1.01-.06-1.49-.04-.24-.12-.47-.18-.7-.08-.23-.17-.45-.25-.67l-.11,.03,.02,.69c-.01,.23,0,.46-.04,.68-.02,.22-.04,.44-.1,.66-.03,.21-.1,.42-.16,.63-.08,.2-.16,.39-.27,.57-.04,.09-.1,.18-.14,.27-.04,.09-.08,.19-.11,.28-.05,.14-.09,.28-.14,.42l-.07,.04c-.78,.45-1.67,.69-2.57,.69-1.39,0-2.7-.55-3.68-1.55l-.23-.23s0-.03,0-.05c0-.16-.02-.32-.06-.47-.05-.16-.1-.31-.12-.48-.03-.16-.04-.33-.05-.49-.02-.17-.03-.34-.03-.51-.01-.17,0-.34,0-.52,0-.17,.03-.34,.04-.53l-.11-.04c-.19,.31-.35,.64-.48,.99-.13,.35-.21,.71-.27,1.09-.04,.3-.13,.62-.08,.93-2.17-.01-3.92-1.78-3.92-3.95,0-1.43,.78-2.75,2.03-3.45l.37-.21,.14-.4c1.06-3.09,5.17-5.33,9.78-5.33s8.96,2.36,9.86,5.61l.1,.37,.31,.23c1.03,.76,1.61,1.91,1.61,3.18,0,2.18-1.77,3.95-3.95,3.95Z"/>
      <path class="cls-8" d="M121.78,75.47c0,2.18-1.77,3.95-3.95,3.95-.01,0-.03,0-.05,0,0-.02,.01-.03,.02-.05,.04-.13,.06-.26,.07-.39,.02-.26,0-.52,0-.77-.03-.51-.11-1-.26-1.46-.07-.23-.18-.45-.27-.68-.1-.22-.22-.42-.34-.63l-.1,.04,.11,.68c.02,.23,.06,.45,.05,.68,0,.23,.01,.44-.01,.66,0,.22-.04,.43-.07,.64-.05,.21-.11,.41-.19,.6-.03,.1-.08,.19-.1,.29-.03,.1-.05,.19-.08,.29-.02,.11-.04,.21-.06,.32l-.07,.07c-.98,1-2.28,1.55-3.68,1.55-.87,0-1.73-.23-2.49-.64,.07-.1,.13-.2,.18-.31,.05-.12,.09-.24,.12-.37,.06-.26,.07-.51,.11-.76,.04-.51,.03-1.01-.06-1.49-.04-.24-.12-.47-.18-.7-.08-.23-.17-.45-.25-.67l-.11,.03,.02,.69c-.01,.23,0,.46-.04,.68-.02,.22-.04,.44-.1,.66-.03,.21-.1,.42-.16,.63-.08,.2-.16,.39-.27,.57-.04,.09-.1,.18-.14,.27-.04,.09-.08,.19-.11,.28-.05,.14-.09,.28-.14,.42l-.07,.04c-.78,.45-1.67,.69-2.57,.69-1.39,0-2.7-.55-3.68-1.55l-.23-.23s0-.03,0-.05c0-.16-.02-.32-.06-.47-.05-.16-.1-.31-.12-.48-.03-.16-.04-.33-.05-.49-.02-.17-.03-.34-.03-.51-.01-.17,0-.34,0-.52,0-.17,.03-.34,.04-.53l-.11-.04c-.19,.31-.35,.64-.48,.99-.13,.35-.21,.71-.27,1.09-.04,.3-.13,.62-.08,.93-2.17-.01-3.92-1.78-3.92-3.95,0-1.43,.78-2.75,2.03-3.45l.37-.21,.14-.4c1.06-3.09,5.17-5.33,9.78-5.33s8.96,2.36,9.86,5.61l.1,.37,.31,.23c1.03,.76,1.61,1.91,1.61,3.18Z"/>
    </g>
    <g>
      <path class="cls-8" d="M76.12,72.84c-11.27-.57-20.52,8.68-19.95,19.95,.49,9.65,8.33,17.48,17.97,17.97,11.27,.57,20.52-8.68,19.95-19.95-.49-9.65-8.33-17.48-17.97-17.97Z"/>
      <path class="cls-16" d="M75.13,72.82c-10.49,0-18.99,8.5-18.99,18.99s8.5,18.99,18.99,18.99,18.99-8.5,18.99-18.99-8.5-18.99-18.99-18.99Zm-9.76,10.3c-.75,.9-2.56,3.16-3.3,5.52-.71,2.25-.82,5.13-.56,7.21,.33,2.62,1.79,5.18,1.79,5.18,0,0-2.46-1.62-3.4-5.95-.94-4.35,.62-8.92,1.7-10.87,.89-1.61,2.72-3.91,4.13-3.44,.83,.28,.4,1.45-.35,2.35Zm4.42-4c-.35,.22-.62,.39-.89,.58-.29,.2-.63,.58-1.09,.58-.42,0-.68-.33-.72-.72-.05-.54,.46-1.11,.89-1.38,.59-.37,1.37-.65,1.84-.31,.5,.36,.44,.96-.02,1.25Z"/>
    </g>
  </g>
  <text class="cls-4" transform="translate(0 131.5)"><tspan x="0" y="0">bubblegum</tspan></text>
  <text class="cls-3" transform="translate(115.91 146.01)"><tspan x="0" y="0">design</tspan></text>
  <line class="cls-2" x1="1.56" y1="142.96" x2="109.68" y2="142.96"/>
</svg>