<?xml version="1.0" encoding="UTF-8"?>
<svg id="Layer_1" data-name="Layer 1" xmlns="http://www.w3.org/2000/svg" xmlns:xlink="http://www.w3.org/1999/xlink" viewBox="0 0 240.37 147.22">
  <defs>
    <style>
      .cls-1 {
        fill: url(#linear-gradient);
      }

      .cls-2 {
        fill: #679e63;
      }

      .cls-3 {
        fill: url(#linear-gradient-3);
      }

      .cls-4 {
        fill: url(#linear-gradient-2);
      }
    </style>
    <linearGradient id="linear-gradient" x1="107.74" y1="29.19" x2="60.39" y2="114.84" gradientUnits="userSpaceOnUse">
      <stop offset="0" stop-color="#3f873f"/>
      <stop offset=".33" stop-color="#3e8a3d"/>
      <stop offset=".64" stop-color="#3e9537"/>
      <stop offset=".93" stop-color="#3da82d"/>
      <stop offset="1" stop-color="#3dae2b"/>
    </linearGradient>
    <linearGradient id="linear-gradient-2" x1="45.87" y1="65.24" x2="139.28" y2="61.59" xlink:href="#linear-gradient"/>
    <linearGradient id="linear-gradient-3" x1="64.25" y1="61.59" x2="113.59" y2="65.57" gradientUnits="userSpaceOnUse">
      <stop offset="0" stop-color="#6abf4b"/>
      <stop offset=".09" stop-color="#6abf4b"/>
      <stop offset=".29" stop-color="#63b649"/>
      <stop offset=".6" stop-color="#519f44"/>
      <stop offset=".86" stop-color="#3f873f"/>
      <stop offset="1" stop-color="#3f873f"/>
    </linearGradient>
  </defs>
  <path class="cls-2" d="M118.53,147.22c-.79,0-1.58-.21-2.27-.61l-7.22-4.27c-1.08-.6-.55-.82-.2-.94,1.44-.5,1.73-.61,3.26-1.48,.16-.09,.37-.06,.54,.04l5.55,3.29c.2,.11,.48,.11,.67,0l21.62-12.48c.2-.11,.33-.35,.33-.58v-24.96c0-.24-.13-.47-.34-.6l-21.61-12.47c-.2-.12-.47-.12-.67,0l-21.61,12.47c-.21,.12-.34,.36-.34,.59v24.96c0,.24,.13,.47,.34,.58l5.92,3.42c3.21,1.61,5.18-.29,5.18-2.19v-24.64c0-.35,.28-.62,.63-.62h2.74c.34,0,.63,.27,.63,.62v24.64c0,4.29-2.34,6.75-6.4,6.75-1.25,0-2.23,0-4.98-1.35l-5.67-3.26c-1.4-.81-2.27-2.32-2.27-3.94v-24.96c0-1.62,.87-3.13,2.27-3.94l21.62-12.5c1.37-.77,3.19-.77,4.55,0l21.62,12.5c1.4,.81,2.27,2.32,2.27,3.94v24.96c0,1.62-.87,3.13-2.27,3.94l-21.62,12.48c-.69,.4-1.48,.61-2.28,.61"/>
  <path class="cls-2" d="M125.21,130.03c-9.46,0-11.44-4.34-11.44-7.99,0-.35,.28-.62,.62-.62h2.8c.31,0,.57,.22,.62,.53,.42,2.85,1.68,4.28,7.4,4.28,4.56,0,6.5-1.03,6.5-3.45,0-1.39-.55-2.43-7.63-3.12-5.92-.58-9.58-1.89-9.58-6.63,0-4.36,3.68-6.97,9.84-6.97,6.93,0,10.36,2.4,10.79,7.56,.02,.18-.05,.35-.16,.48-.12,.12-.28,.2-.46,.2h-2.81c-.29,0-.55-.21-.61-.49-.67-2.99-2.31-3.95-6.75-3.95-4.97,0-5.55,1.73-5.55,3.03,0,1.57,.68,2.03,7.4,2.92,6.65,.88,9.8,2.12,9.8,6.79s-3.93,7.41-10.78,7.41"/>
  <path d="M175.79,8.13L162.05,.23c-.92-.53-1.68-.1-1.68,.97V38.74l-7.06-4.08c-.93-.54-2.44-.54-3.37,0l-22.46,12.97c-.93,.54-1.68,1.85-1.68,2.92v25.94c0,1.07,.76,2.38,1.68,2.92l22.46,12.97c.93,.53,2.44,.53,3.37,0l22.46-12.97c.93-.53,1.68-1.85,1.68-2.92V11.03c0-1.06-.75-2.37-1.68-2.9Zm-15.52,59.73c0,.36-.25,.8-.56,.98l-7.51,4.34c-.31,.18-.82,.18-1.13,0l-7.51-4.34c-.31-.18-.56-.62-.56-.98v-8.67c0-.36,.25-.8,.56-.98l7.51-4.33c.31-.18,.82-.18,1.13,0l7.51,4.33c.31,.18,.56,.62,.56,.98v8.67Z"/>
  <path d="M49.98,47.45l-22.46-12.97c-.93-.53-2.44-.53-3.37,0L1.68,47.45c-.93,.53-1.68,1.85-1.68,2.92v35.21c0,1.06,.75,1.5,1.68,.97l13.85-7.98c.92-.53,1.68-1.84,1.68-2.9v-16.66c0-.36,.25-.8,.56-.97l7.51-4.34c.31-.18,.82-.18,1.13,0l7.51,4.34c.31,.18,.56,.62,.56,.97v16.66c0,1.06,.75,2.37,1.68,2.9l13.85,7.98c.92,.53,1.68,.1,1.68-.97V50.37c0-1.07-.76-2.38-1.68-2.92Z"/>
  <g>
    <path d="M240.33,50.18c-.01-.07-.03-.13-.04-.2h0s0-.03,0-.04c-.03-.14-.08-.29-.13-.43,0-.01,0-.02-.01-.03h0c-.04-.11-.08-.21-.14-.31h0c-.07-.15-.15-.29-.24-.42-.02-.03-.04-.06-.06-.09-.06-.08-.11-.16-.17-.24-.05-.06-.1-.12-.15-.18-.03-.04-.06-.07-.1-.11-.08-.08-.16-.16-.25-.23-.02-.02-.04-.03-.06-.05-.1-.08-.2-.15-.3-.21l-5.15-2.97-17.32-10c-.93-.54-2.44-.54-3.37,0l-22.46,12.97c-.93,.54-1.68,1.85-1.68,2.92v25.94c0,1.07,.76,2.38,1.68,2.92l6.88,3.97,15.56,9c.92,.53,2.43,.53,3.35,0l13.84-8c.92-.53,.92-1.4,0-1.94l-23.56-13.61c-.31-.18-.56-.62-.56-.98v-8.67c0-.36,.25-.8,.56-.98l7.51-4.33c.31-.18,.82-.18,1.13,0l7.51,4.33c.31,.18,.56,.62,.56,.98v6.68c0,1.06,.76,1.5,1.68,.97l7.2-4.15h0l6.64-3.83c.92-.53,1.68-1.84,1.68-2.9v-5.4c0-.12-.01-.24-.03-.37Z"/>
    <path class="cls-2" d="M214.85,57.47c-.18-.1-.46-.1-.64,0l-4.25,2.45c-.18,.1-.32,.35-.32,.55v4.91c0,.2,.14,.45,.32,.55l4.25,2.45c.17,.1,.46,.1,.64,0l4.25-2.45c.18-.1,.32-.35,.32-.55v-4.91c0-.2-.14-.45-.32-.55l-4.25-2.45Z"/>
  </g>
  <g>
    <path class="cls-1" d="M87.05,34.71l-22.46,12.97c-.93,.53-1.68,1.85-1.68,2.92v25.94c0,1.07,.76,2.38,1.68,2.92l22.46,12.97c.93,.53,2.44,.53,3.37,0l22.46-12.97c.93-.53,1.68-1.85,1.68-2.92v-25.94c0-1.07-.76-2.38-1.68-2.92l-22.46-12.97c-.93-.54-2.44-.54-3.37,0Z"/>
    <path class="cls-4" d="M63.24,76.44c-.53,.92-.21,2.11,.71,2.64l23.74,13.7c.92,.53,2.11,.21,2.64-.71l23.9-41.39c.53-.92,.21-2.11-.71-2.64l-23.74-13.7c-.92-.53-2.11-.21-2.64,.71l-23.9,41.39Z"/>
    <path class="cls-3" d="M114.23,76.44c.53,.92,.21,2.11-.71,2.64l-23.74,13.7c-.92,.53-2.11,.21-2.64-.71l-23.9-41.39c-.53-.92-.21-2.11,.71-2.64l23.74-13.7c.92-.53,2.11-.21,2.64,.71l23.9,41.39Z"/>
  </g>
</svg>