<?xml version="1.0" encoding="UTF-8"?>
<svg id="Layer_1" data-name="Layer 1" xmlns="http://www.w3.org/2000/svg" viewBox="0 0 128.64 114.48">
  <defs>
    <style>
      .cls-1 {
        fill: #2500ff;
      }
    </style>
  </defs>
  <path class="cls-1" d="M75.87,57.24c0,6.37-5.17,11.54-11.54,11.54s-11.54-5.17-11.54-11.54,5.17-11.54,11.54-11.54,11.54,5.17,11.54,11.54Z"/>
  <path class="cls-1" d="M64.32,31.01C28.8,31.01,0,42.76,0,57.24s28.8,26.23,64.32,26.23,64.32-11.74,64.32-26.23-28.8-26.23-64.32-26.23Zm43.46,39.82c-11.52,4.7-26.96,7.29-43.46,7.29s-31.94-2.59-43.46-7.29c-9.71-3.96-15.51-9.04-15.51-13.59s5.8-9.63,15.51-13.59c11.52-4.7,26.96-7.29,43.46-7.29s31.94,2.59,43.46,7.29c9.71,3.96,15.51,9.04,15.51,13.59s-5.8,9.63-15.51,13.59Z"/>
  <path class="cls-1" d="M41.61,44.13c-17.76,30.77-21.99,61.58-9.45,68.82,12.54,7.24,37.11-11.82,54.88-42.59C104.8,39.59,109.03,8.78,96.49,1.54S59.38,13.36,41.61,44.13Zm56.22-17.73c-1.69,12.33-7.17,26.99-15.42,41.28s-18.21,26.37-28.04,34c-8.28,6.43-15.58,8.91-19.52,6.63-3.94-2.27-5.44-9.84-4.02-20.23,1.69-12.33,7.17-26.99,15.42-41.28s18.21-26.37,28.04-34c8.29-6.43,15.58-8.91,19.52-6.64,3.94,2.27,5.44,9.84,4.02,20.23h0Z"/>
  <path class="cls-1" d="M32.16,1.54c-12.54,7.24-8.32,38.05,9.45,68.82,17.76,30.77,42.33,49.83,54.88,42.59,12.54-7.24,8.32-38.05-9.45-68.82C69.28,13.36,44.71-5.71,32.16,1.54Zm2.68,4.63c3.94-2.28,11.24,.21,19.52,6.64,9.83,7.63,19.79,19.7,28.04,34,8.25,14.29,13.73,28.96,15.42,41.28,1.43,10.39-.08,17.95-4.02,20.23-3.94,2.27-11.24-.21-19.52-6.63-9.83-7.63-19.79-19.7-28.04-34-8.25-14.29-13.73-28.95-15.42-41.28-1.42-10.39,.07-17.95,4.02-20.23h0Z"/>
</svg>