<?xml version="1.0" encoding="UTF-8"?>
<svg id="Layer_1" data-name="Layer 1" xmlns="http://www.w3.org/2000/svg" viewBox="0 0 379 74.95">
  <defs>
    <style>
      .cls-1, .cls-2, .cls-3 {
        fill: #e84031;
      }

      .cls-2 {
        opacity: .7;
      }

      .cls-2, .cls-3 {
        isolation: isolate;
      }

      .cls-3 {
        opacity: .5;
      }
    </style>
  </defs>
  <path class="cls-2" d="M282.86,26.54v47.22h-15.52V34.61l15.52-8.06Z"/>
  <path class="cls-2" d="M75.14,74.95l36.27-18.97-4.47-11.58-23.88,11.13-7.92,19.41Z"/>
  <path class="cls-3" d="M267.34,34.57l39.35-20.14-6.65-11.24-32.7,15.98v15.4h0Z"/>
  <path class="cls-2" d="M156.52,22.81v50.96h-14.8V1.19l14.8,21.62Z"/>
  <path class="cls-3" d="M97.57,19.99l-22.43,54.97-11.54-9.93L90.33,1.19l7.24,18.8Z"/>
  <path class="cls-1" d="M90.33,1.19h15.29l28.28,72.58h-15.65L90.33,1.19Z"/>
  <path class="cls-1" d="M158.81,1.19l32.6,49.59v22.99L141.71,1.19h17.09Z"/>
  <path class="cls-1" d="M234.73,1.19h-15.4V73.78h15.4V1.19Z"/>
  <path class="cls-1" d="M267.34,14.43h-23.72V1.19h55.23l7.83,13.24h-39.35Z"/>
  <path class="cls-3" d="M352.17,46.22v27.54h-15.29v-27.54"/>
  <path class="cls-1" d="M336.88,46.22L362.75,1.19h16.25l-26.83,45.04h-15.29Z"/>
  <path class="cls-2" d="M336.88,46.22L310.29,1.19h16.73l18.01,30.86-8.15,14.17Z"/>
  <path class="cls-1" d="M6.21,9.56c0,10.11,6.35,16.12,19.07,19.29l13.48,3.07c12.04,2.72,19.36,9.46,19.36,20.45,.09,4.79-1.49,9.46-4.49,13.24,0-10.97-5.77-16.89-19.7-20.45l-13.23-2.96C10.1,39.84,1.92,34.29,1.92,22.35c-.05-4.61,1.46-9.11,4.29-12.79"/>
  <path class="cls-2" d="M191.4,47.05V1.19h14.8V73.77h-14.8v-26.72Z"/>
  <path class="cls-2" d="M45.36,49.69c5.75,3.61,8.27,8.67,8.27,15.92-4.76,5.99-13.12,9.35-22.94,9.35-16.54,0-28.11-8-30.68-21.89H15.88c2.05,6.38,7.46,9.34,14.68,9.34,8.82,0,14.68-4.62,14.8-12.74"/>
  <path class="cls-2" d="M14.47,24.55c-2.62-1.53-4.78-3.73-6.23-6.37-1.45-2.64-2.15-5.61-2.03-8.61C10.8,3.63,18.79,0,28.52,0c16.85,0,26.6,8.74,29,21.05h-15.28c-1.68-4.85-5.9-8.63-13.59-8.63-8.22,0-13.82,4.7-14.15,12.13"/>
</svg>