<?xml version="1.0" encoding="UTF-8"?>
<svg id="Layer_1" data-name="Layer 1" xmlns="http://www.w3.org/2000/svg" viewBox="0 0 309.08 88.27">
  <defs>
    <style>
      .cls-1 {
        fill: #fffffe;
      }

      .cls-2 {
        fill: #8db849;
      }

      .cls-3 {
        fill: #333;
      }

      .cls-4 {
        fill: #5a863e;
      }
    </style>
  </defs>
  <g id="shopify">
    <path class="cls-2" d="M35,2.79c.62,0,.93,.31,1.55,.62-3.72,1.55-7.43,5.57-9.29,14.25l-6.81,1.86c2.17-6.19,6.5-16.72,14.56-16.72Zm3.41,3.1c.62,1.86,1.24,4.03,1.24,7.43v.62l-8.98,2.48c1.86-6.5,4.96-9.29,7.74-10.53Zm8.05,5.57l-4.03,1.24v-.93c0-2.79-.31-4.96-.93-6.81,2.17,.62,4.03,3.41,4.96,6.5Zm20.13,4.96c0-.31-.31-.62-.62-.62-.62,0-7.12-.62-7.12-.62,0,0-4.65-4.65-5.26-4.96-.62-.62-1.55-.31-1.86-.31,0,0-.93,.31-2.48,.93-1.55-4.34-4.34-8.36-8.98-8.36h-.31C38.71,.62,36.85,0,35.31,0c-11.15-.31-16.41,13.63-18.27,20.75-2.48,.62-4.96,1.55-7.74,2.48-2.48,.62-2.48,.93-2.79,3.1-.31,1.55-6.5,50.48-6.5,50.48l49.24,9.29,26.63-5.88s-9.29-63.18-9.29-63.8Z"/>
    <path class="cls-4" d="M65.66,15.8c-.31,0-6.81-.62-6.81-.62,0,0-4.65-4.65-5.26-4.96q-.31-.31-.62-.31l-3.72,76.19,26.63-5.88s-9.29-63.18-9.29-63.8c0-.31-.62-.62-.93-.62"/>
    <path class="cls-1" d="M40.26,30.67l-3.41,9.91s-2.79-1.55-6.5-1.55c-5.26,0-5.57,3.1-5.57,4.03,0,4.34,11.77,6.19,11.77,16.72,0,8.36-5.26,13.63-12.39,13.63-8.36,0-12.7-5.26-12.7-5.26l2.17-7.43s4.34,3.72,8.05,3.72c2.48,0,3.41-1.86,3.41-3.41,0-5.88-9.6-6.19-9.6-15.79,0-8.05,5.88-15.79,17.34-15.79,5.26-.31,7.43,1.24,7.43,1.24"/>
    <path class="cls-3" d="M107.16,48.94c-2.79-1.55-4.03-2.79-4.03-4.34,0-2.17,1.86-3.41,4.96-3.41,3.41,0,6.5,1.55,6.5,1.55l2.48-7.43s-2.17-1.86-8.67-1.86c-9.29,0-15.49,5.26-15.49,12.7,0,4.34,3.1,7.43,6.81,9.6,3.1,1.86,4.34,3.1,4.34,4.96s-1.55,3.72-4.65,3.72c-4.34,0-8.67-2.17-8.67-2.17l-2.48,7.43s3.72,2.48,10.22,2.48c9.29,0,16.1-4.65,16.1-13.01,0-4.65-3.41-8.05-7.43-10.22m37.47-15.79c-4.65,0-8.36,2.17-11.15,5.57h0l4.03-21.06h-10.53l-10.22,53.58h10.53l3.41-18.27c1.24-6.81,4.96-11.15,8.36-11.15,2.48,0,3.41,1.55,3.41,4.03,0,1.55,0,3.1-.31,4.65l-4.03,21.06h10.53l4.03-21.68c.31-2.17,.62-4.96,.62-6.81,0-6.19-3.1-9.91-8.67-9.91m26.94,30.66c-3.72,0-4.96-3.1-4.96-6.81,0-5.88,3.1-15.79,8.67-15.79,3.72,0,4.96,3.1,4.96,6.19,0,6.81-3.1,16.41-8.67,16.41Zm5.26-30.66c-12.7,0-21.06,11.46-21.06,24.16,0,8.05,4.96,14.56,14.56,14.56,12.39,0,20.75-11.15,20.75-24.16,0-7.43-4.34-14.56-14.25-14.56Zm30.97,30.97c-2.79,0-4.34-1.55-4.34-1.55l1.86-9.91c1.24-6.5,4.65-10.84,8.36-10.84,3.1,0,4.34,3.1,4.34,5.88-.31,6.81-4.34,16.41-10.22,16.41Zm10.22-30.97c-7.12,0-11.15,6.19-11.15,6.19h0l.62-5.57h-9.29c-.31,3.72-1.24,9.6-2.17,13.94l-7.43,38.4h10.53l2.79-15.49h.31s2.17,1.24,6.19,1.24c12.39,0,20.44-12.7,20.44-25.4,0-6.81-3.1-13.32-10.84-13.32Zm25.71-14.87c-3.41,0-5.88,2.79-5.88,6.19,0,3.1,1.86,5.26,4.96,5.26h0c3.41,0,6.19-2.17,6.19-6.19,0-3.1-2.17-5.26-5.26-5.26m-14.56,52.96h10.53l7.12-37.16h-10.53l-7.12,37.16Zm44.29-37.16h-7.43l.31-1.86c.62-3.72,2.79-6.81,6.19-6.81,1.86,0,3.41,.62,3.41,.62l2.17-8.36s-1.86-.93-5.57-.93-7.43,.93-10.22,3.41c-3.72,3.1-5.26,7.43-6.19,11.77l-.31,1.86h-4.96l-1.55,8.05h4.96l-5.57,29.42h10.53l5.57-29.42h7.12l1.55-7.74Zm25.09,0s-6.5,16.41-9.6,25.4h0c-.31-2.79-2.48-25.4-2.48-25.4h-11.15l6.19,34.07c0,.62,0,1.24-.31,1.86-1.24,2.48-3.41,4.65-5.57,6.19-1.86,1.55-4.34,2.48-5.88,3.1l2.79,8.98c2.17-.31,6.5-2.17,10.22-5.57,4.65-4.34,9.29-11.46,13.63-20.75l12.7-27.56-10.53-.31Z"/>
  </g>
</svg>