<?xml version="1.0" encoding="UTF-8"?>
<svg id="Layer_1" data-name="Layer 1" xmlns="http://www.w3.org/2000/svg" viewBox="0 0 440.37 88.84">
  <defs>
    <style>
      .cls-1 {
        fill: #9c5c8f;
      }

      .cls-1, .cls-2, .cls-3 {
        fill-rule: evenodd;
      }

      .cls-2 {
        fill: #fff;
      }
    </style>
  </defs>
  <g id="woocommerce">
    <path class="cls-1" d="M1.1,8.45C3.15,3.5,8.28,0,13.66,.01,54.11,0,94.57,.02,135.02,0c3.51-.08,7.02,1.23,9.61,3.6,2.97,2.65,4.65,6.62,4.57,10.59-.01,15.51,.03,31.01-.02,46.52-.03,7.01-6.15,13.26-13.15,13.45-14.75,.06-29.51,0-44.27,.03,1.98,4.88,3.99,9.76,5.97,14.65-8.79-4.84-17.49-9.85-26.33-14.59-19.41-.17-38.83,.01-58.24-.1C6.17,73.96,.08,67.71,.04,60.72-.02,45.54,.04,30.36,0,15.17c-.05-2.28,.16-4.61,1.1-6.72h0Z"/>
    <path class="cls-2" d="M60.44,9.58c2.24-2.38,6.49-1.61,8.15,1.09,.9,1.41,.97,3.3,.25,4.81-3.12,6.13-4.42,12.96-5.62,19.68-1.42,8.75-2.6,17.62-2.14,26.51,.13,2.27-.97,5.02-3.4,5.54-2.3,.51-4.39-.99-5.84-2.62-6.61-7.11-10.34-16.31-13.04-25.49-2.73,5.38-5.46,10.76-8.1,16.18-1.85,3.67-3.8,7.4-6.76,10.32-1.25,1.24-3.36,2.36-4.97,1.09-2.42-2.12-3.02-5.5-4.05-8.4-3.9-13.45-6.11-27.31-8.38-41.11-.52-2.3,.45-5.05,2.74-5.97,1.85-.69,4.23-.79,5.81,.57,1.1,.98,1.4,2.51,1.61,3.9,1.59,10.68,3.48,21.33,6.06,31.82,4.42-8.38,8.81-16.77,13.22-25.16,.66-1.23,1.44-2.46,2.64-3.22,1.61-1.03,4-.96,5.34,.48,1.13,1.18,1.51,2.83,1.82,4.39,1.32,6.93,3.1,13.8,5.69,20.37,1.12-9.9,2.48-19.93,6.1-29.28,.82-1.88,1.54-3.88,2.86-5.48h0Zm24.84,5.3c4.76-.58,9.89,1,13.13,4.61,2.64,2.99,4.13,6.87,4.62,10.79,.81,6.71-.4,13.69-3.63,19.65-1.83,3.4-4.21,6.65-7.58,8.65-4.93,2.99-11.55,2.63-16.31-.53-3.81-2.61-5.95-7.05-6.82-11.48-1.75-10.02,1.24-21.19,8.83-28.19,2.18-1.88,4.89-3.15,7.76-3.5h0Zm.99,10.31c-2.29,.76-3.73,2.85-4.96,4.8-3.08,4.96-3.97,11.49-1.49,16.89,.65,1.42,1.7,2.91,3.35,3.21,1.75,.29,3.38-.71,4.66-1.81,2.81-2.41,4.21-6.04,4.89-9.6,.76-4.05,.37-8.54-2.01-12.01-.95-1.41-2.83-2.06-4.44-1.49h0Zm37.17-10.3c4.65-.58,9.69,.86,12.95,4.33,2.91,3.14,4.49,7.34,4.93,11.57,.69,6.49-.51,13.2-3.59,18.97-1.85,3.49-4.29,6.85-7.76,8.88-4.74,2.84-10.99,2.58-15.68-.22-3.17-1.91-5.28-5.17-6.49-8.59-3.33-10.48-.52-22.8,7.15-30.71,2.3-2.24,5.28-3.81,8.49-4.21h0Zm1.01,10.32c-2.5,.89-3.99,3.27-5.29,5.44-2.81,4.95-3.5,11.33-.96,16.53,.69,1.44,1.9,2.89,3.62,2.97,1.87,.07,3.48-1.12,4.78-2.34,2.82-2.78,4.12-6.76,4.57-10.62,.46-3.62-.14-7.5-2.24-10.54-.96-1.41-2.86-2.02-4.47-1.43h0Z"/>
    <path class="cls-3" d="M174.33,16.27c4.06-.9,8.32-.77,12.36,.17,.01,3.3,0,6.61,0,9.91-3.31-.8-7.02-1.55-10.23,0-3.84,1.88-5.94,6.21-5.98,10.37-.22,4.14,1.16,8.76,4.83,11.09,3.37,2.23,7.68,1.76,11.38,.69,0,3.3,0,6.61,0,9.91-4.89,1.42-10.24,1.24-15.02-.53-5.73-2.15-10.3-7.11-12.05-12.97-1.32-4.45-1.49-9.28-.42-13.8,1.73-7.26,7.86-13.21,15.13-14.83h0Zm29.81-.49c4.99-.56,10.42,.21,14.46,3.41,3.89,3.02,5.83,7.89,6.51,12.64,.69,5.21,.53,10.62-1.08,15.65-1.37,4.27-4.24,8.22-8.37,10.16-4.2,1.98-9.09,2.11-13.56,1.1-4.14-.93-7.79-3.67-9.84-7.38-2.84-5-3.36-10.93-3.14-16.56,.23-4.86,1.46-9.93,4.73-13.68,2.56-3.05,6.36-4.9,10.29-5.35h0Zm1.54,9.47c-2.14,.54-3.36,2.66-3.9,4.65-1.06,3.94-.88,8.08-.61,12.12,.26,2.18,.49,4.58,2.05,6.28,2.06,2.34,6.2,2.03,8.09-.37,1.25-1.54,1.58-3.56,1.86-5.46,.4-3.4,.5-6.85-.01-10.24-.36-2.03-.92-4.17-2.42-5.69-1.28-1.33-3.31-1.74-5.06-1.29h0Zm195.75-8.81c4.24-1.11,8.73-.95,12.99-.04,.1,3.31,.02,6.63,.04,9.94-3.24-.78-6.83-1.51-10-.11-3.65,1.66-5.86,5.58-6.15,9.49-.45,4.38,.76,9.42,4.62,11.99,3.39,2.33,7.78,1.87,11.52,.79-.04,3.33,.1,6.66-.08,9.98-5.22,1.36-10.9,1.17-15.87-.98-5.46-2.38-9.69-7.31-11.26-13.05-1.2-4.4-1.34-9.14-.23-13.58,1.74-6.94,7.51-12.63,14.41-14.44h0Zm-169.74,.33c4.72,0,9.44,0,14.16,0,1.71,7.65,3.33,15.33,4.75,23.04,1.35-7.75,3.17-15.4,4.99-23.04,4.84,0,9.68,0,14.52,0,1.88,13.85,3.75,27.71,5.61,41.56-3.7,0-7.4,0-11.11,0-1.03-9.49-1.94-18.99-3.02-28.47-2.25,9.5-4.61,18.98-6.9,28.47-2.52,0-5.05,0-7.58,0-2.42-9.5-4.81-19.02-7.25-28.52-.95,9.51-1.9,19.02-2.86,28.52-3.54,0-7.08,0-10.62,0,1.76-13.85,3.54-27.7,5.3-41.55h0Zm50.79,0c4.72,0,9.44,0,14.17,0,1.7,7.64,3.31,15.31,4.74,23.01,1.37-7.73,3.17-15.38,5-23.01h14.46c1.87,13.85,3.74,27.71,5.61,41.56-3.7,0-7.4,0-11.1,0-1.03-9.49-1.99-18.99-3-28.48-2.31,9.49-4.58,18.99-6.88,28.47-2.52,0-5.05,0-7.57,0-2.42-9.51-4.83-19.03-7.25-28.55-.97,9.51-1.9,19.03-2.87,28.54-3.54,0-7.08,0-10.62,0,1.77-13.85,3.54-27.71,5.3-41.56h0Zm47.14,.14c7.58-.17,15.17-.02,22.75-.07,.01,2.95,0,5.9,.01,8.85-3.83,.04-7.65,0-11.48,.02,0,2.53,0,5.07,0,7.6,3.31,0,6.63,0,9.94,0,0,2.87,0,5.74,0,8.61-3.31,0-6.63,0-9.94,0,0,2.53,0,5.07,0,7.61,3.84,0,7.69,0,11.53,0,0,2.95,0,5.9,0,8.85-7.58,0-15.17,0-22.75,0-.05-13.83,.08-27.66-.07-41.49h0Zm26.03-.14c4.75,.02,9.49-.04,14.24,.03,4.47,.14,9.21,1.26,12.55,4.42,3.01,2.8,4.06,7.38,2.89,11.28-.92,3.17-3.3,5.74-6.27,7.13,2.97,6.24,5.97,12.46,8.94,18.69-3.95,0-7.9,0-11.84,0-3.1-6.36-6.1-12.78-9.23-19.12-.08,6.37,0,12.74-.03,19.11-3.75,0-7.49,0-11.24,0,0-13.85,0-27.71,0-41.56h0Zm11.18,7.99c0,3.3,0,6.61,0,9.92,2.03-.14,4.24-.22,5.96-1.45,1.99-1.43,1.77-4.5,.52-6.35-1.55-1.9-4.25-1.94-6.48-2.12h0Zm50.77-7.98c7.57-.02,15.14,0,22.71,0,0,2.96,0,5.91,0,8.87-3.84,0-7.68,0-11.52,0,0,2.53,0,5.06,0,7.59,3.31,0,6.63,0,9.94,0,0,2.87,0,5.75,0,8.62-3.31,0-6.62,0-9.93,0-.01,2.53,0,5.07,0,7.61,3.86,0,7.71,0,11.57,0,0,2.95,0,5.9,0,8.86-7.58,0-15.16,0-22.74,0-.01-13.85,0-27.7,0-41.55h0Z"/>
  </g>
</svg>